<?xml version="1.0" encoding="UTF-8"?>
<svg id="Layer_1" xmlns="http://www.w3.org/2000/svg" version="1.1" viewBox="0 0 312 160">
  <!-- Generator: Adobe Illustrator 29.0.1, SVG Export Plug-In . SVG Version: 2.1.0 Build 192)  -->
  <defs>
    <style>
      .st0 {
        fill: #fff;
      }

      .st0, .st1 {
        fill-rule: evenodd;
      }

      .st1 {
        fill: #e94d4d;
      }
    </style>
  </defs>
  <path class="st1" d="M-428,193.9c3.8-6.7,6.5-10.7,6.5-10.7l2.6-12.8c-1.4,1.7-8.6,5.9-11.6,4.3-5.9-3-18.7-3.2-18.7-3.2l10.2-4.6,9.4-4.1,5.6-13.2c-2.2-.4-4.2-1-5.8-1.6-5.1-2.1-10.2-17.1,1.6-32.1,1.9-2.4,3.8-4.2,5.7-5.7h-.2s-3.1-36.1,6.4-38.5c0,0,22.3.2,29-5.1,6.7-5.3,4.5,9.4,4.5,9.4,0,0-11.8,8.8-15.7,10.9-4,2.1,5.4,21,5.4,21l2,2.5c5,2.3,10.3,4.8,10.3,4.8l19.4-9.8-1.6-2.4c.3-.9,7.6-35.2,7.6-35.2l10.8-23.4,12.5,8.7,16.2-10.3,5,17.9,18.5-2.3-22.6,14.3,4.1,11.6s-4.5-2.5-11.6.2c-7.1,2.7-11.1,23.1-11.1,23.1l-15-6.6h-1.7c8.4,5.7,9,19.4,9,19.4l7-.6,7.1,15.2s-3.2-3.4-7.5-6.5c-4.3-3.2-20.1,4.2-20.1,4.2-8-4-11.7,15.8-11.7,15.8,3.9,9.4,19.8,3.1,29.6,4.8,9.8,1.7,2.1,9,2.1,9,0,0-19.2,10.5-22.4,13.2-3.1,2.7-25.3-1.2-26.3.6-1,1.8-11.7,14.9-7.1,21.4,4.6,6.5,62-18.5,62-18.5l24.5-21.1c-8.4-12.3,2.6-24.2,2.6-24.2l12.5-13.5,6.9,9.7,22.4-6.6-12.3,19,30.4,7.1-17.4-.3,3.8,9.8-8.1-3.4-3.7,16.4s-2.4-4-5.8-5.8c-16.2-8.3-55.5,59.5-49,68.5.4.4.6.6.6.6-.2-.2-.5-.4-.6-.6-2.2-2.2-9.9-9.9-15.4-20.3-6.5-12.3-75.3,40.1-75.3,40.1,0,0,29.7-8.1,26.1-4.3-3.6,3.8-37.3,56.7-25.4,58.8,12,2.1,44.7-35.3,44.7-35.3,6.7-8.3,21,.4,21,.4,0,0,65,41.1,64,25.9-1-15.2,12.9-15.7,12.9-15.7l30.3,4.4-17.9,5.6,6.7,10.8,15.6,9.9-14.8,2.8-3.7,23-2.2-11.8-14-5.3-31.4,11.4s18.3-12.1,17.8-12.2c-.4-.1-61.1-20.6-61.1-20.6l-33.5,40.5c3.8,1,25.5,7.6,41.3,32.7,0,0,16,3,16.3,2.9.3-.1,12-14.2,12-14.2l13.7-1.1s6.4,12.1-.6,14.5c-7.1,2.4-10.3,8.4-10.3,8.4l-6.2,13.3-8.6-4-13.2,11.2-15.2-9.2-26.5-21.9s-20.3-1.1-23.7,3.7c-2.8,4-10.6-2.7-15.3-8.2h0s-8,44.9,2.2,58.8c10.2,13.9,33,53.8,67.4,56.2,0,0,45.3,8.1,65.2-5.4,19.9-13.5,27.1-8.7,27.1-8.7,0,0-13.4,11.8-16.3,14.1-2.9,2.3-13.5,12.3-13.5,12.3,0,0-77,29.1-115.7-10.6,0,0-40.6-35.5-42-55.3,0,0-9.6-59.7-5.5-69.9,4.2-10.2-5.6-6.8-5.6-6.8l2.5-8.2,7.7-25h0c-5.4-8-8.8-16.5-10.9-25.1v.5c0,0-3.7,28.8-36.9,28,0,0,2.2-5.7,4.6-13.6l-1.5,3.2c-3.5,8.3-12.1,19.3-17.5,25.8-.4,1-1.6-2.4-1.4-6.2.5-9.8,1.5-16,1.5-16,5.3-40.2,10.9-73.8,10.9-73.8-8.4-17.2,26-34.2,26-34.2l37.2-17h0ZM-402.3,135.3s5.7,3.3,9.5.6c3.8-2.7,4.9-7.6,3.5-8.8,0,0-7.9-3.4-10.4-.9-2.6,2.4-2.6,9.2-2.6,9.2h0Z"/>
  <path class="st0" d="M-429.4,163.4l5.5-12.9c.2-.4,0-.8-.4-.9-.4-.2-.8,0-.9.4l-5.5,12.9c-.2.4,0,.8.4.9.4.2.8,0,.9-.4h0Z"/>
  <polygon class="st0" points="-423.9 150.5 -425.2 149.9 -430.7 162.8 -429.4 163.4 -423.9 150.5 -423.9 150.5"/>
  <path class="st0" d="M-284.3,323.5c-3.8,2.7-16.8,11.4-16.8,11.4-.3.2-.4.6-.2.9.2.3.5.5.9.3l31.1-11.3,13.3,5.1,2.1,11.4c0,.3.4.6.7.6.3,0,.6-.3.7-.6l3.6-22.5,14.4-2.7c.3,0,.5-.3.6-.6,0-.3,0-.6-.3-.7l-15.5-9.8-6.1-9.9,17-5.4c.3,0,.5-.4.5-.7s-.3-.6-.6-.6l-30.3-4.3s0,0-.1,0c0,0-7.2.2-11.1,5.9-1.7,2.4-2.8,5.8-2.5,10.6,0,.7,0,1.3-.4,1.7-.4.5-.9.7-1.7.9-.9.1-2.1,0-3.4-.1-16.1-2.7-57.5-28.9-57.5-28.9-.3-.2-.8-.1-1,.2-.2.3-.1.8.2,1,0,0,41.8,26.4,58,29.1,1.8.3,3.3.3,4.5,0,.9-.2,1.5-.7,2-1.3.5-.6.7-1.5.6-2.6-.3-4.4.7-7.5,2.2-9.6,3.3-4.8,9.3-5.2,9.9-5.3,0,0,27.2,3.9,27.2,3.9l-14.9,4.7c-.2,0-.4.2-.5.4,0,.2,0,.4,0,.6l6.7,10.8c0,0,.1.2.2.2l14.1,8.9-13.1,2.5c-.3,0-.5.3-.6.6l-3,18.9-1.4-7.7c0-.2-.2-.4-.4-.5l-14-5.3c-.2,0-.3,0-.5,0l-25.8,9.4c4.6-3.1,10.9-7.3,12.6-8.6.4-.3.6-.5.6-.6.1-.3,0-.5,0-.6,0-.2-.2-.3-.4-.4-.4-.1-61.1-20.6-61.1-20.6-.3,0-.6,0-.8.2l-37.4,45.2c-10.6,5.2-21,3.5-29.7-.5-13.2-6-22.4-17.1-22.4-17.1,0,0,0,0,0,0-19.5-22.5-21.4-50.3-16.6-75.6,7.2-38,29.3-70.3,29.3-70.3.2-.3.1-.8-.2-1-.3-.2-.8-.1-1,.2,0,0-22.3,32.5-29.5,70.8-4.8,25.6-2.9,53.9,17,76.8.3.3,9.6,11.5,22.9,17.5,9.1,4.1,19.9,5.9,31.1.4,0,0,.2-.1.2-.2,0,0,33.6-40.6,37.2-45,5.1,1.7,51.4,17.3,59.5,20.1h0Z"/>
  <path class="st0" d="M-421.3,183.5l2.1-12.8c0-.4-.2-.8-.6-.8-.4,0-.8.2-.8.6l-2.1,12.8c0,.4.2.8.6.8.4,0,.8-.2.8-.6h0Z"/>
  <path class="st0" d="M-323.5,232.6c-3.2-3.4-9-9.9-13.4-18.2-.6-1.2-1.7-1.9-3.2-2.1-2-.3-4.7.1-8,1.2-21,7.1-65.2,40.8-65.2,40.8-.3.2-.4.6-.2.9.1.3.5.5.8.4,0,0,14.5-4,22-5,1.2-.2,2.3-.3,3-.3,0,0,.2,0,.3,0-3,3.6-19.8,29.7-25.8,45.9-1.6,4.4-2.4,8.1-2,10.5.3,1.9,1.3,3.1,3,3.4,1.5.3,3.4,0,5.5-.8,3-1.1,6.4-3.3,10-6,13.8-10.3,29.9-28.7,29.9-28.7,0,0,0,0,0,0,2.5-3.1,6.1-3.6,9.6-3.2,5.4.7,10.4,3.7,10.4,3.7.3.2.8,0,1-.2.2-.3,0-.8-.2-1,0,0-5.3-3.2-11-3.9-3.9-.5-8.1.2-10.9,3.7-.4.5-16.2,18.4-29.6,28.5-3.5,2.6-6.8,4.7-9.6,5.8-1.8.7-3.4,1-4.7.8-1.1-.2-1.7-1-1.9-2.2-.4-2.2.5-5.7,2-9.8,6-16.4,23.2-43,25.7-45.7.6-.7.6-1.2.3-1.6-.1-.2-.3-.3-.6-.4-.3-.1-.9-.2-1.6-.2-4.3,0-15.6,2.9-21.4,4.4,8.6-6.4,34.7-25.4,53.2-34.6,5.7-2.8,10.6-4.7,14.1-5,2-.2,3.5.2,4.1,1.5,5.6,10.5,13.3,18.3,15.5,20.5.2.3.5.5.8.7.3.2.7.1.9-.2.2-.3.2-.7,0-1,0,0-.2-.2-.6-.5-.2-.2-.3-.5-.4-.8-.2-.7-.2-1.6-.1-2.7.5-5.4,4.2-14.6,9.4-24.3,7.9-14.7,19.4-30.7,29-37.2,3.9-2.6,7.4-3.7,10.2-2.3,3.2,1.6,5.5,5.5,5.5,5.5.1.2.4.4.7.3.3,0,.5-.3.6-.5l3.5-15.6,7.3,3c.3.1.6,0,.8-.1.2-.2.3-.5.2-.8l-3.4-8.9,16.3.3c.4,0,.7-.3.7-.6,0-.4-.2-.7-.5-.8l-29.5-6.9,11.7-18.2c.2-.2.1-.6,0-.8-.2-.2-.5-.3-.8-.3l-21.9,6.5-6.6-9.3c-.1-.2-.3-.3-.5-.3-.2,0-.4,0-.6.2l-12.5,13.5s-11.1,12-3,24.6l-23.9,20.6c-2.1.9-37,16-53.5,19-2.5.4-4.5.6-5.9.4-.7-.1-1.3-.3-1.6-.7-1.7-2.4-1.1-5.8.3-9.1,2.1-5.2,6-10.2,6.8-11.4,0,0,.4-.1.7-.2,1-.1,2.4,0,4.2,0,5,.3,12.1,1,16.7.8,2.2-.1,3.8-.5,4.5-1.1,3.1-2.7,22.3-13.1,22.3-13.1,0,0,.1,0,.1-.1,0,0,1.5-1.4,2.4-3.1.7-1.3,1-2.7.5-4-.5-1.3-2-2.6-5.3-3.1-5.9-1-14,.9-20.4.5-3.9-.2-7.1-1.3-8.6-4.7.2-1.2,1.5-7.3,4-11.6,1.6-2.9,3.8-5,6.6-3.6.2,0,.4,0,.6,0,0,0,7.6-3.6,13.7-4.7,1.5-.3,2.9-.4,4-.2.7,0,1.2.3,1.7.6,4.2,3.1,7.4,6.5,7.4,6.5.2.3.6.3.9,0,.3-.2.4-.6.2-.9l-7.1-15.2c-.1-.3-.4-.4-.7-.4l-6.3.6c-.2-1.7-.7-5.9-2.4-10.2-1.5-3.7-4-7.5-7.8-9.7-.2-.1-.5-.1-.7,0l-29.2,14.8c-2.3-1.1-16.9-7.8-18.6-8.6-1.9-.9-17.3-5.6-29.4,9.8-8.4,10.7-8.4,21.5-5.8,27.7,1.2,2.8,2.9,4.7,4.5,5.4,3.1,1.3,8.1,2.4,12.8,2.1,3.2-.2,6.3-1.1,8.6-3.1.3-.2.3-.7,0-1-.2-.3-.7-.3-1,0-2.1,1.8-4.9,2.6-7.8,2.8-4.5.3-9.2-.8-12.1-2-1.4-.6-2.8-2.3-3.7-4.6-2.4-5.9-2.4-16.1,5.6-26.3,11.4-14.5,25.9-10.2,27.7-9.4,1.9.9,18.9,8.7,18.9,8.7.2,0,.4,0,.6,0l29.2-14.7c3.4,2.1,5.5,5.5,6.9,8.8,2.2,5.3,2.4,10.4,2.4,10.4,0,.2,0,.4.2.5.1.1.3.2.5.2l6.5-.6,5.3,11.4c-1.3-1.2-3-2.6-4.8-4-1.4-1-3.9-1.1-6.8-.6-5.5,1-12.2,4-13.7,4.6-3.4-1.5-6.2.8-8.2,4.3-2.8,4.9-4.2,12.2-4.2,12.2,0,.1,0,.3,0,.4,1.7,4,5.4,5.4,9.9,5.7,6.3.4,14.4-1.5,20.2-.5,2.6.4,3.8,1.2,4.2,2.3.4.9,0,1.9-.5,2.8-.7,1.3-1.8,2.4-2,2.7-1.4.8-19.4,10.6-22.4,13.2-.2.2-.5.3-.9.4-.7.2-1.7.3-2.8.4-4.6.2-11.6-.5-16.6-.8-2.2-.1-4-.1-4.9,0-.7.1-1.1.4-1.2.7-.6,1.1-4.7,6.3-6.9,11.7-1.6,3.8-2.1,7.7-.1,10.5.5.6,1.3,1.1,2.5,1.3,1.5.2,3.7,0,6.4-.4,17.1-3.1,53.9-19.1,53.9-19.1,0,0,.1,0,.2-.1l24.5-21.1c.3-.2.3-.6.1-.9-8.1-11.9,2.6-23.4,2.6-23.4l11.9-12.9,6.4,9c.2.2.5.4.8.3l20.6-6.1-11.2,17.4c-.1.2-.1.4,0,.6,0,.2.3.4.5.4l23.9,5.6-10.7-.2c-.2,0-.5.1-.6.3-.1.2-.2.4,0,.7l3.2,8.3-6.6-2.7c-.2,0-.4,0-.6,0-.2,0-.3.3-.4.5l-3.3,14.9c-1-1.4-2.9-3.5-5.1-4.7-3.2-1.6-7.2-.6-11.7,2.4-9.7,6.6-21.4,22.8-29.5,37.7-5.4,10-9.1,19.4-9.6,24.9,0,.6,0,1.2,0,1.7h0Z"/>
  <path class="st0" d="M-413.2,163s-6,7-11.6,10.3c-1.1.7-2.3,1.2-3.3,1.4-.9.2-1.8.2-2.6-.2-4.2-2.1-11.8-2.9-16-3.2l7.5-3.3,9.5-4.1c.4-.2.5-.6.4-.9-.2-.4-.6-.5-.9-.4l-9.5,4.1s0,0,0,0l-10.2,4.6c-.3.1-.5.5-.4.8,0,.3.3.6.7.6,0,0,12.6.2,18.4,3.1,1.9,1,4.6.3,7.2-1.2,5.8-3.3,12-10.6,12-10.6.3-.3.2-.7,0-1-.3-.3-.7-.2-1,0h0Z"/>
  <path class="st0" d="M-413.2,163s-6,7-11.6,10.3c-1.1.7-2.3,1.2-3.3,1.4-.9.2-1.8.2-2.6-.2-4.2-2.1-11.8-2.9-16-3.2l7.5-3.3,9.5-4.1c.4-.2.5-.6.4-.9-.2-.4-.6-.5-.9-.4l-9.5,4.1s0,0,0,0l-10.2,4.6c-.3.1-.5.5-.4.8,0,.3.3.6.7.6,0,0,12.6.2,18.4,3.1,1.9,1,4.6.3,7.2-1.2,5.8-3.3,12-10.6,12-10.6.3-.3.2-.7,0-1-.3-.3-.7-.2-1,0h0Z"/>
  <path class="st0" d="M-403.5,135.5c0,.3.1.5.4.6,0,0,2.2,1.2,4.8,1.6,1.8.3,3.8.1,5.5-1.1,2.9-2,4.3-5.3,4.4-7.4,0-1.1-.3-2-.8-2.5,0,0-.1,0-.2-.1,0,0-4-1.7-7.3-1.9-1.6,0-3,.2-3.9,1.1-1.1,1.1-1.8,2.9-2.2,4.6-.6,2.5-.6,5-.6,5h0ZM-402.1,135.1c0-.8.1-2.5.6-4.3.3-1.5.9-3,1.8-3.9.4-.4,1-.6,1.7-.6.8,0,1.6,0,2.5.1,2.4.4,4.8,1.3,5.4,1.6.1.1.2.4.2.6,0,.4,0,.9,0,1.5-.4,1.8-1.6,4-3.7,5.5-1.4,1-3,1-4.5.8-1.7-.2-3.2-.9-3.9-1.3h0Z"/>
  <path class="st0" d="M-349.4,101.8l15,6.6c.2,0,.4,0,.6,0,.2,0,.3-.3.4-.5,0,0,1.9-9.9,5.5-16.7,1.4-2.8,3.1-5.1,5.1-5.9,6.7-2.6,11-.3,11-.3.3.1.6.1.8,0,.2-.2.3-.5.2-.8l-3.9-11,22.1-14c.3-.2.4-.5.3-.8-.1-.3-.4-.5-.8-.5l-17.8,2.2-4.8-17.3c0-.2-.2-.4-.4-.5-.2,0-.4,0-.6,0l-15.8,10-12.1-8.5c-.2-.1-.4-.2-.6-.1-.2,0-.4.2-.5.4l-10.8,23.4s0,0,0,.1c0,0-7.3,34.2-7.6,35.1-.1.4.1.8.5.9.4.1.8-.1.9-.5.2-.8,7.2-33.4,7.6-35.1l10.4-22.6,11.8,8.2c.2.2.5.2.8,0l15.4-9.7,4.7,16.9c0,.3.4.6.8.5l15.3-1.9-19.9,12.6c-.3.2-.4.5-.3.8l3.6,10.1c-2-.6-5.7-1.1-10.7.8-2.2.9-4.2,3.4-5.9,6.5-3,5.8-4.9,13.7-5.4,16.2l-14.2-6.2c-.4-.2-.8,0-.9.4-.2.4,0,.8.4.9h0Z"/>
  <path class="st0" d="M-348.9,100.4l-2.7-.6c-.4,0-.8.1-.9.5,0,.4.1.8.5.9l2.7.6c.4,0,.8-.1.9-.5,0-.4-.1-.8-.5-.9h0Z"/>
  <path class="st0" d="M-364.1,103.6l1.6,1.9c.2.3.7.3,1,0,.3-.2.3-.7,0-1l-1.6-1.9c-.2-.3-.7-.3-1-.1-.3.2-.3.7,0,1h0Z"/>
  <path class="st0" d="M-320.3,377.9c-.3,0-.8-.1-1.4-.2-3.8-.6-12.4-2.2-14.2-2.6-17.6-27.6-41.4-32.6-41.4-32.6-.4,0-.8.2-.8.5,0,.4.2.8.5.8,0,0,23.5,4.9,40.7,32.2.1.2.3.3.5.3,0,0,13,2.4,15.8,2.8.4,0,.6,0,.7,0,.1,0,.2,0,.2,0,0,0,.3-.2.6-.6,1.9-2.2,10-11.9,11.4-13.5l12.9-1.1c.6,1.2,2.1,4.5,2.4,7.7.2,2.3-.3,4.6-2.8,5.4-7.4,2.5-10.7,8.7-10.7,8.7,0,0,0,0,0,0l-5.9,12.7-8-3.7c-.2-.1-.5,0-.8.1l-12.8,10.8-14.7-8.9c-1.1-.9-26.4-21.8-26.4-21.8-.1,0-.3-.2-.4-.2,0,0-10.1-.5-17.3.8-1.9.4-3.6.8-4.9,1.5-.9.5-1.7,1-2.2,1.7-.8,1.2-2.2,1.1-3.8.4-4.4-1.8-10.3-8.1-12.9-11.7-3.8-5.3-12.5-31.8-12.5-31.8-.1-.4-.5-.6-.9-.5-.4.1-.6.5-.5.9,0,0,8.8,26.8,12.7,32.2,2.7,3.8,8.9,10.3,13.5,12.2,2.3.9,4.3.8,5.5-.9.4-.5.9-.9,1.6-1.3,1.2-.6,2.8-1,4.5-1.4,6.4-1.2,15.2-.9,16.7-.8l26.3,21.7s0,0,0,0l15.2,9.2c.3.2.6.1.8,0l12.9-10.9,8.2,3.8c.4.2.8,0,.9-.3l6.2-13.3c.2-.3,3.3-5.8,9.9-8,3.2-1.1,4-3.9,3.8-6.9-.3-4.1-2.7-8.7-2.7-8.7-.1-.3-.4-.4-.7-.4l-13.7,1.1c-.2,0-.4.1-.5.3,0,0-7.5,9-10.6,12.6-.5.5-.9,1-1.1,1.2h0Z"/>
  <path class="st0" d="M-414.7,371.1s-3.9,22.1-2.8,40.1c.5,7.9,2,15,5.1,19.2,6.1,8.4,16.8,26.1,31.9,39.5,10.1,9,22.2,16,36.1,17,.4,0,.7-.3.8-.7,0-.4-.3-.7-.7-.8-13.6-.9-25.4-7.8-35.2-16.6-14.9-13.3-25.6-31-31.7-39.3-3-4.1-4.3-10.9-4.8-18.5-1.1-17.9,2.7-39.8,2.7-39.8,0-.4-.2-.8-.6-.8-.4,0-.8.2-.8.6h0Z"/>
  <path class="st0" d="M-344.5,486.9s16.4,2.9,33.8,2.3c11.7-.4,23.8-2.4,31.9-7.9,15.4-10.5,23-9.8,25.4-9.1-3,2.6-13,11.3-15.4,13.3-2.8,2.2-12.3,11.2-13.4,12.2-2.1.8-28.7,10.4-57.9,10.2-20.2-.1-41.6-4.9-57-20.6,0,0,0,0,0,0,0,0-19.8-17.3-32.2-34.5-5.2-7.3-9.2-14.5-9.6-20.3,0,0,0,0,0,0,0,0-4.7-29.2-6.1-50.2-.6-8.9-.6-16.3.6-19.3,1.4-3.4,1.3-5.4.6-6.6-.7-1.2-2-1.7-3.4-1.7-.8,0-1.7,0-2.4.2l2.2-7c.1-.4,0-.8-.5-.9-.4-.1-.8,0-.9.5l-2.5,8.2c0,.3,0,.5.2.7.2.2.5.2.7.2,0,0,1.6-.6,3.1-.5.9,0,1.8.2,2.2,1,.6,1,.4,2.6-.7,5.4-1.3,3.1-1.3,10.8-.7,19.9,1.4,20.7,6,49.3,6.1,50.3.4,6,4.4,13.5,9.8,21,12.2,17,31.7,34.1,32.4,34.7,15.6,16,37.4,20.9,57.9,21,30.7.2,58.5-10.3,58.5-10.3,0,0,.2,0,.2-.1,0,0,10.5-9.9,13.4-12.3,2.9-2.3,16.3-14.1,16.3-14.1.2-.1.3-.4.2-.6,0-.2-.1-.4-.3-.5,0,0-7.5-5.2-27.9,8.7-7.9,5.4-19.7,7.3-31.1,7.6-17.3.6-33.5-2.3-33.5-2.3-.4,0-.8.2-.8.6,0,.4.2.8.6.8h0Z"/>
  <path class="st0" d="M-471.5,239.1c-.1.3-.3.8-.5,1.2-2.3,5.6-9.6,22.4-7.3,36.4,2.8,17.1-9.6,49-9.6,49,0,.2,0,.5,0,.6.1.2.3.3.6.3,10.1.2,17.6-2.3,23-5.8,12.7-8.4,14.6-22.8,14.6-22.8,0-.4-.2-.7-.6-.8-.4,0-.7.2-.8.6,0,0-1.8,13.8-13.9,21.8-5.1,3.3-11.9,5.7-21.2,5.6,2-5.5,11.9-33.2,9.4-48.8-2.5-15.4,7-34.4,7.8-37.2,0-.1,0-.3,0-.4h0c3.2-3.2,24.7-23.8,24.7-23.8.3-.3.3-.7,0-1-.3-.3-.7-.3-1,0,0,0-21.5,20.5-24.7,23.8-.4.4-.5.6-.5.6,0,.1,0,.3,0,.3,0,0,0,.2,0,.3h0Z"/>
  <path class="st0" d="M-445.3,215.2l9.2-5.8c.3-.2.4-.6.2-1-.2-.3-.6-.4-1-.2l-9.2,5.8c-.3.2-.4.6-.2,1,.2.3.6.4,1,.2h0Z"/>
  <path class="st0" d="M-502.3,340.2c0-.2-.1-.4-.2-.6-.1-.5-.2-1.2-.2-1.9-.4-6,.8-18.1.8-18.6,5.3-40.1,10.9-73.8,10.9-73.8,0-.1,0-.3,0-.4-3.2-6.6.2-13.2,5.4-18.7,8-8.5,20.3-14.6,20.3-14.6.4-.2.5-.6.3-.9-.2-.4-.6-.5-.9-.3,0,0-12.5,6.2-20.7,14.9-5.6,5.9-9.1,13-5.7,20.1-.5,3-5.8,35.3-10.8,73.6,0,0,0,0,0,0,0,0-1.6,16.5-.5,21.1.1.5.3.9.5,1.2.2.3.5.5.8.5.4,0,.9,0,1.4-.6,5.6-6.6,13.7-17,17.2-25.5.2-.4,0-.8-.4-.9-.4-.2-.8,0-.9.4-3.5,8.4-11.5,18.6-17,25.1h0Z"/>
  <path class="st0" d="M-465.4,211.7s34.5-15.7,35.7-16.3l1-.3c.4-.1.6-.5.4-.9-.1-.4-.5-.6-.9-.4l-1,.3s0,0,0,0l-35.7,16.3c-.4.2-.5.6-.4.9.2.4.6.5.9.4h0Z"/>
  <path class="st0" d="M-422.5,110.5s-1.5-17.6.8-28.9c.6-2.8,1.4-5.3,2.5-6.9.7-1,1.5-1.6,2.4-1.9,1.1,0,11.4,0,19.8-1.7,3.9-.8,7.4-2,9.5-3.6.6-.5,1.1-.8,1.5-.9.3-.1.6-.1.8,0,.5.2.8.8,1,1.6.7,2.6.2,6.7,0,7.8-1.7,1.2-11.8,8.8-15.4,10.6-.7.3-1.1,1-1.3,1.9-.2,1.1,0,2.6.3,4.3,1.4,6.3,6.1,15.7,6.1,15.7.2.3.6.5.9.3.3-.2.5-.6.3-.9,0,0-4.6-9.2-6-15.4-.3-1.5-.5-2.8-.3-3.8,0-.4.2-.8.5-.9,4-2.1,15.8-10.9,15.8-10.9.1-.1.2-.3.3-.5,0,0,.8-5.5,0-8.7-.3-1.3-1-2.2-1.9-2.6-.9-.3-2.1-.1-3.7,1.2-1.9,1.5-5.2,2.6-8.9,3.3-8.8,1.8-19.6,1.7-19.6,1.7,0,0-.1,0-.2,0-1.3.3-2.4,1.2-3.3,2.5-1.2,1.8-2.2,4.4-2.8,7.5-2.4,11.5-.8,29.3-.8,29.3,0,.4.4.7.8.6.4,0,.7-.4.6-.8h0Z"/>
  <path class="st0" d="M-394.2,108.6l2,2.5c.2.3.7.3,1,0,.3-.2.3-.7,0-1l-2-2.5c-.2-.3-.7-.3-1-.1-.3.2-.3.7,0,1h0Z"/>
  <path class="st0" d="M-447.5,347.9l7.7-25c.1-.4,0-.8-.5-.9-.4-.1-.8,0-.9.5l-7.7,25c-.1.4,0,.8.5.9.4.1.8,0,.9-.5h0Z"/>
  <path d="M-307.3,385.9c.9,11.8.9,23.2,0,34.2l24,.7c.6,0,1.2,0,1.7-.4.5-.3.9-.6,1.3-1,.3-.4.6-.8.7-1.3.1-.5.2-.9,0-1.3,0-.4-.3-.7-.6-.9-.3-.2-.8-.3-1.4-.2h0c-3,.8-6,1.4-9.1,1.8-3,.4-6.2.6-9.4.4,0-2,0-4.3,0-6.8,0-2.5,0-5.1.1-7.9,0-2.8.2-5.6.3-8.6.1-3,.3-5.9.6-8.8-2.8.3-5.5.3-8.3,0h0Z"/>
  <path d="M-275.5,420.3c.8-.1,1.6-.2,2.4-.2s1.5,0,2.2.2c.6-1.2,1.2-2.5,1.8-3.7.6-1.2,1.3-2.5,1.9-3.8h16.2c.4,1.3.9,2.5,1.3,3.7.4,1.2.8,2.5,1.2,3.7,1.3-.1,2.7-.2,4-.2s2.8,0,4.2.2c-2.7-5.5-5.2-11-7.4-16.7-2.2-5.7-4.3-11.5-6.1-17.4-2.7.3-5.5.3-8.3,0,.4.9.8,1.7,1.2,2.6.4.8.8,1.7,1.2,2.6-2.5,5-5.1,10-7.8,14.8-2.6,4.8-5.3,9.6-8.1,14.3h0ZM-257.8,395.4c1.1,2.5,2.1,4.9,3.1,7.4,1,2.4,1.9,4.9,2.8,7.3h-13.8c1.3-2.4,2.6-4.8,3.9-7.3,1.3-2.4,2.7-4.9,4.1-7.4h0Z"/>
  <path d="M-212.5,420.2c1.3-.1,2.6-.2,4-.2s2.8,0,4.3.2c-1.8-1.7-3.5-3.5-5.2-5.2-1.7-1.8-3.3-3.5-5-5.3,1.5-.7,3-1.5,4.3-2.4,1.3-.9,2.4-1.9,3.4-2.9.9-1,1.7-2.2,2.2-3.4.5-1.2.8-2.5.8-3.9s-.6-3.5-1.7-4.9c-1.1-1.4-2.5-2.5-4.2-3.5-1.7-.9-3.6-1.6-5.6-2.1-2-.5-3.9-.7-5.7-.7h-14.7c.9,11.8.9,23.2,0,34.2,1.4-.1,2.8-.2,4.1-.2s2.7,0,4.1.2c-.1-1-.2-2.1-.3-3.1,0-1.1-.1-2.2-.2-3.4,1.4-.2,2.7-.5,4.1-.9,1.4-.3,2.7-.7,4-1.1,1.2,1.4,2.4,2.9,3.6,4.3,1.2,1.4,2.3,2.8,3.5,4.2h0ZM-227.4,388.1c.9-.1,1.9,0,3.1,0,1.2.1,2.4.4,3.6.8,1.2.4,2.5.8,3.7,1.3,1.2.5,2.3,1.2,3.2,1.9s1.7,1.5,2.2,2.3c.6.8.8,1.7.8,2.6,0,1.7-.5,3.3-1.3,4.8-.8,1.5-2,2.8-3.5,4-1.5,1.2-3.3,2.3-5.4,3.2-2.1.9-4.4,1.7-7,2.3,0-2-.1-4-.1-6,0-2,0-4.1,0-6.1,0-2,.1-3.9.2-5.8,0-1.9.2-3.7.3-5.4h0Z"/>
  <path d="M-191.8,403.1c0-2.2.5-4.2,1.4-6,.9-1.9,2.1-3.5,3.6-4.9,1.5-1.4,3.1-2.5,4.9-3.4,1.8-.8,3.5-1.2,5.3-1.3,1.6,0,3,.2,4.3.6,1.3.5,2.5,1,3.6,1.7,1.1.7,2,1.4,2.9,2.1.8.8,1.5,1.5,2.1,2.1.9-.2,1.5-.6,1.8-1.1s.3-1.1.1-1.8c-.2-.7-.5-1.3-1-2-.5-.7-1-1.2-1.5-1.7-1.1,0-2.1-.2-3.1-.4-1-.2-2.1-.5-3.1-.8-1.1-.3-2.1-.5-3.1-.7-1-.2-2.1-.3-3.1-.3-3.7,0-6.9.5-9.7,1.4-2.8.9-5.2,2.2-7.1,3.8-1.9,1.6-3.3,3.5-4.3,5.7-1,2.2-1.5,4.5-1.5,7s.5,4.8,1.6,6.9c1.1,2.2,2.6,4,4.6,5.6,2,1.6,4.3,2.8,7,3.8,2.7.9,5.8,1.4,9.1,1.4s2.7,0,3.9-.3c1.2-.2,2.3-.5,3.3-.8,1.1-.4,2.1-.9,3.2-1.4,1.1-.6,2.2-1.3,3.4-2,.2-.6.5-1.2.9-2,.4-.8.7-1.6.9-2.3.2-.8.2-1.5,0-2.2-.2-.7-.7-1.2-1.5-1.5-1,1.9-2.2,3.5-3.4,4.7-1.3,1.3-2.5,2.3-3.8,3.1-1.3.8-2.6,1.4-3.8,1.7-1.2.3-2.3.5-3.3.5-1.7,0-3.4-.4-5.1-1.2-1.7-.8-3.3-1.8-4.7-3.2-1.4-1.4-2.5-3-3.4-4.8-.9-1.9-1.3-3.9-1.3-6h0Z"/>
  <path d="M-131.3,420.2c1.4-.1,2.8-.2,4.1-.2s2.7,0,4.1.2c-.5-5.5-.8-11.1-.7-16.8,0-5.7.3-11.5.7-17.4-2.8.3-5.5.3-8.3,0,.3,3.6.5,7.1.6,10.5h-18.2c0-1.7.1-3.5.3-5.2.1-1.8.2-3.5.4-5.3-2.8.3-5.5.3-8.3,0,.9,11.8.9,23.2,0,34.2,1.4-.1,2.8-.2,4.1-.2s2.7,0,4.1.2c-.7-6.7-.9-13.6-.7-20.7h18.3c0,3.6,0,7.1,0,10.5-.1,3.4-.3,6.8-.6,10.2h0Z"/>
  <path d="M-118.4,420.3c.8-.1,1.6-.2,2.4-.2.8,0,1.5,0,2.2.2.6-1.2,1.2-2.5,1.8-3.7.6-1.2,1.3-2.5,1.9-3.8h16.2c.4,1.3.9,2.5,1.3,3.7.4,1.2.8,2.5,1.2,3.7,1.3-.1,2.7-.2,4-.2s2.8,0,4.2.2c-2.7-5.5-5.2-11-7.4-16.7-2.2-5.7-4.3-11.5-6.1-17.4-2.7.3-5.5.3-8.3,0,.4.9.8,1.7,1.2,2.6.4.8.8,1.7,1.2,2.6-2.5,5-5.1,10-7.8,14.8-2.6,4.8-5.3,9.6-8.1,14.3h0ZM-100.6,395.4c1.1,2.5,2.1,4.9,3.1,7.4,1,2.4,1.9,4.9,2.8,7.3h-13.8c1.3-2.4,2.6-4.8,3.9-7.3,1.3-2.4,2.7-4.9,4.1-7.4h0Z"/>
  <path d="M-77.5,420.1c.9-.1,1.8-.2,2.6-.2s1.8,0,2.7.2c-.2-4-.4-8-.4-12.1,0-4.1,0-8.2,0-12.4,3.9,4.2,7.6,8.4,11.1,12.5,3.5,4.1,6.9,8.1,10.2,12.2.7,0,1.3,0,2-.1.7,0,1.4,0,2.2,0,.2,0,.4,0,.5,0,.2,0,.3,0,.5,0-.3-5.5-.5-11.1-.5-16.8,0-5.7.2-11.5.5-17.4-1.7.3-3.5.3-5.3,0,.2,4.5.4,8.9.4,13.2,0,4.3,0,8.6-.1,12.8-3.9-4.2-7.8-8.5-11.5-12.8-3.7-4.3-7.4-8.7-11-13.2-1.2.1-2.6.2-4,.2s-2.8,0-4.3-.3c.7.8,1.5,1.6,2.2,2.3.7.7,1.4,1.5,2.2,2.3.2,5.1.3,10.1.2,15,0,4.9-.2,9.8-.4,14.6h0Z"/>
  <path d="M-27.5,420.3c1.4-.1,2.8-.2,4.1-.2s2.7,0,4.1.2c-.2-4.2-.3-7.9-.4-10.9-.1-3.1-.2-5.7-.2-7.9,0-2.2,0-4,0-5.5,0-1.4,0-2.6,0-3.6,0-1,.1-1.7.2-2.3,0-.6.2-1.2.3-1.7,1.3,0,2.4.2,3.4.3.9.1,1.8.3,2.7.6.8.2,1.7.5,2.5.8.8.3,1.8.7,2.9,1.1h0c.8.1,1.3,0,1.6-.6.3-.5.3-1.1.2-1.8-.1-.7-.5-1.3-1-1.9-.5-.6-1.1-.9-2-.9h-13.7c0,.1-15.1,0-15.1,0-.6,0-1.1.1-1.6.4-.5.2-.8.6-1.1.9-.3.4-.5.8-.6,1.2,0,.4,0,.8,0,1.1.1.3.3.6.7.8.3.2.8.2,1.3.1h0c1.1-.3,2.2-.6,3.1-.9.9-.3,1.8-.5,2.6-.7.9-.2,1.8-.4,2.7-.5.9-.1,2.1-.2,3.3-.3.8,11.1.7,21.8-.1,32.2h0Z"/>
  <path d="M-307.9,160.3c2.9-.3,5.9-.4,8.7-.4s5.8.1,8.7.4c-1.4-14.3-1.9-29-1.5-44.1,4.3,0,8.7,0,13.1,0,4.4,0,9,.6,13.7,1.7-.5-1.3-.8-2.7-.7-4.1,0-1.4.3-3,.7-4.6-4.5,1.3-9,2-13.4,2.2-4.4.1-8.8.1-13.3,0,0-3,.2-6.2.3-9.4.1-3.2.3-6.3.6-9.4,2.7.1,5.6.3,8.7.6,3,.3,6.1.7,9.1,1.3,3,.5,5.9,1.1,8.7,1.8,2.8.7,5.4,1.5,7.8,2.3h0c1.6.3,2.7-.1,3.3-1.2.6-1.1.7-2.3.4-3.7-.3-1.4-1-2.7-2-4-1-1.2-2.4-1.9-4.1-1.9h-48.7c0,0-.3,0-.3,0,2,24.8,2,48.9,0,72.2h0Z"/>
  <path d="M-252.5,124.4c0,5.2,1.1,10.1,3.3,14.7,2.2,4.6,5.2,8.6,9,12,3.8,3.4,8.2,6.1,13.3,8.1,5.1,2,10.5,2.9,16.2,2.9s11.2-1,16.2-2.9c5.1-2,9.5-4.6,13.3-8.1,3.8-3.4,6.8-7.4,9-12,2.2-4.6,3.3-9.5,3.3-14.7s-1.1-10.1-3.3-14.7c-2.2-4.6-5.2-8.6-9-12-3.8-3.4-8.2-6.1-13.3-8.1-5.1-2-10.5-3-16.2-3s-11.2,1-16.2,3c-5.1,2-9.5,4.7-13.3,8.1-3.8,3.4-6.8,7.4-9,12-2.2,4.6-3.3,9.5-3.3,14.7h0ZM-236.3,124.2c0-4.5.7-8.8,2.1-12.8,1.4-4,3.2-7.4,5.6-10.4,2.4-3,5.1-5.3,8.3-7.1,3.2-1.7,6.6-2.6,10.2-2.6s7,.9,10.2,2.6c3.2,1.7,5.9,4.1,8.3,7.1,2.4,3,4.2,6.5,5.6,10.4,1.4,4,2.1,8.2,2.1,12.8s-.7,8.8-2.1,12.8c-1.4,4-3.2,7.4-5.6,10.4-2.4,3-5.1,5.3-8.3,7-3.2,1.7-6.6,2.6-10.2,2.6s-7-.9-10.2-2.6c-3.2-1.7-5.9-4.1-8.3-7-2.4-3-4.2-6.4-5.6-10.4-1.4-4-2.1-8.2-2.1-12.8h0Z"/>
  <path d="M-142.6,88c-5.8.7-11.7.7-17.5,0,.6,7.6,1,15.1,1.2,22.4.2,7.4.3,14.7.1,22,0,4.3.2,8.3.8,11.9.6,3.7,1.6,6.8,3,9.4,1.4,2.6,3.2,4.7,5.5,6.1,2.3,1.5,5,2.2,8.2,2.2s6.5-.3,9.5-.9c3-.6,5.9-1.4,8.7-2.4,2.8-.9,5.6-2,8.3-3.1,2.8-1.1,5.5-2.2,8.3-3.2-.1,1.4-.2,2.8-.3,4.1,0,1.3-.2,2.6-.3,3.7,2.9-.3,5.9-.4,8.7-.4s5.8.1,8.7.4c-1.1-11.6-1.6-23.4-1.6-35.4,0-12,.6-24.3,1.6-36.8-5.8.7-11.7.7-17.5,0,.3,4.4.6,9.1.8,14.1.2,5,.4,10,.4,15.1,0,5.1,0,10.1,0,15,0,4.9-.2,9.6-.4,14.1-2.4.7-4.9,1.6-7.3,2.5-2.5.9-4.9,1.7-7.4,2.5-2.5.8-5,1.4-7.5,1.9-2.5.5-5,.8-7.5.8s-3.8-.5-5.1-1.6c-1.2-1.1-2.1-2.6-2.7-4.5-.6-1.9-.9-4.1-1-6.7,0-2.6-.1-5.4-.1-8.4,0-7.6.2-15.3.5-23,.3-7.8.7-15,1.4-21.7h0Z"/>
  <path d="M-47.7,90.9c3.3,0,6.4.2,9.1.8,2.7.6,5.2,1.4,7.5,2.4,2.2,1,4.2,2.1,5.9,3.4s3.1,2.6,4.3,4c2-.4,3.2-1.2,3.7-2.3.5-1.1.6-2.4.2-3.8-.4-1.4-1-2.8-2.1-4.2-1-1.4-2-2.6-3.1-3.7-4.5-.3-8.8-.6-13.1-.9-4.3-.3-8.6-.5-13.1-.5s-4.4.4-7,1.1c-2.6.7-5.1,1.8-7.4,3.3-2.3,1.5-4.3,3.4-5.9,5.7-1.6,2.3-2.5,5.2-2.5,8.5s.9,4.5,2.7,6.4c1.8,1.9,4,3.6,6.6,5.1,2.7,1.5,5.5,2.7,8.6,3.8,3.1,1,6,1.8,8.6,2.3,3.3.7,6.4,1.5,9.1,2.5,2.7,1,5.1,2.2,7.1,3.5,2,1.3,3.5,2.7,4.6,4.2,1.1,1.5,1.7,3,1.7,4.6,0,3.4-.8,6.4-2.5,8.9-1.7,2.5-3.8,4.6-6.5,6.3-2.7,1.7-5.6,3-8.9,3.8-3.3.8-6.5,1.2-9.7,1.2s-3.8-.5-6-1.5c-2.2-1-4.5-2.2-6.8-3.8-2.3-1.5-4.7-3.2-7.1-5.1-2.4-1.9-4.7-3.7-6.9-5.5-1.6.5-2.5,1.3-2.8,2.4-.3,1.1-.2,2.2.1,3.5.4,1.2.9,2.5,1.7,3.7.7,1.2,1.3,2.3,1.8,3.1,2.2,1.2,4.3,2.3,6.3,3.2,2,.9,4,1.7,5.9,2.3,2,.6,4,1.1,6.2,1.3,2.2.3,4.6.4,7.3.4,6.2,0,11.8-.5,17-1.6,5.2-1.1,9.6-2.6,13.4-4.7,3.7-2,6.6-4.6,8.7-7.6,2.1-3,3.1-6.5,3.1-10.4s-1.1-6.6-3.2-9.4c-2.1-2.8-4.8-5.3-7.9-7.4-3.1-2.1-6.5-3.9-10.2-5.3-3.6-1.4-7-2.4-10.1-3-1.8-.3-4-.8-6.4-1.5-2.5-.6-4.8-1.4-7-2.3-2.2-.9-4.1-2-5.7-3.1-1.6-1.2-2.4-2.4-2.4-3.7s.5-3.3,1.5-4.7c1-1.3,2.2-2.4,3.5-3.3,1.4-.9,2.8-1.6,4.2-2,1.4-.5,2.6-.7,3.5-.7h0Z"/>
  <path d="M9.1,156.3c2.9-.3,5.9-.4,8.7-.4s5.8.1,8.7.4c-1.4-14.3-1.9-29-1.5-44.1,4.3,0,8.7,0,13.1,0,4.4,0,9,.6,13.7,1.7-.5-1.3-.8-2.7-.7-4.1,0-1.4.3-3,.7-4.6-4.5,1.3-9,2-13.4,2.2-4.4.1-8.8.1-13.3,0,0-3,.2-6.2.3-9.4.1-3.2.3-6.3.6-9.4,2.7.1,5.6.3,8.7.6,3,.3,6.1.7,9.1,1.3,3,.5,5.9,1.1,8.7,1.8,2.8.7,5.4,1.5,7.8,2.3h0c1.6.3,2.7-.1,3.3-1.2.6-1.1.7-2.3.4-3.7-.3-1.4-1-2.7-2-4-1-1.2-2.4-1.9-4.1-1.9H9.4c0,0-.3,0-.3,0,2,24.8,2,48.9,0,72.2h0Z"/>
  <path d="M64.5,120.4c0,5.2,1.1,10.1,3.3,14.7,2.2,4.6,5.2,8.6,9,12,3.8,3.4,8.2,6.1,13.3,8.1,5.1,2,10.5,2.9,16.2,2.9s11.2-1,16.2-2.9c5.1-2,9.5-4.6,13.3-8.1,3.8-3.4,6.8-7.4,9-12,2.2-4.6,3.3-9.5,3.3-14.7s-1.1-10.1-3.3-14.7c-2.2-4.6-5.2-8.6-9-12-3.8-3.4-8.2-6.1-13.3-8.1-5.1-2-10.5-3-16.2-3s-11.2,1-16.2,3c-5.1,2-9.5,4.7-13.3,8.1-3.8,3.4-6.8,7.4-9,12-2.2,4.6-3.3,9.5-3.3,14.7h0ZM80.7,120.2c0-4.5.7-8.8,2.1-12.8,1.4-4,3.2-7.4,5.6-10.4,2.4-3,5.1-5.3,8.3-7.1,3.2-1.7,6.6-2.6,10.2-2.6s7,.9,10.2,2.6c3.2,1.7,5.9,4.1,8.3,7.1,2.4,3,4.2,6.5,5.6,10.4,1.4,4,2.1,8.2,2.1,12.8s-.7,8.8-2.1,12.8c-1.4,4-3.2,7.4-5.6,10.4-2.4,3-5.1,5.3-8.3,7-3.2,1.7-6.6,2.6-10.2,2.6s-7-.9-10.2-2.6c-3.2-1.7-5.9-4.1-8.3-7-2.4-3-4.2-6.4-5.6-10.4-1.4-4-2.1-8.2-2.1-12.8h0Z"/>
  <path d="M174.4,84c-5.8.7-11.7.7-17.5,0,.6,7.6,1,15.1,1.2,22.4.2,7.4.3,14.7.1,22,0,4.3.2,8.3.8,11.9.6,3.7,1.6,6.8,3,9.4,1.4,2.6,3.2,4.7,5.5,6.1,2.3,1.5,5,2.2,8.2,2.2s6.5-.3,9.5-.9c3-.6,5.9-1.4,8.7-2.4,2.8-.9,5.6-2,8.3-3.1,2.8-1.1,5.5-2.2,8.3-3.2-.1,1.4-.2,2.8-.3,4.1,0,1.3-.2,2.6-.3,3.7,2.9-.3,5.9-.4,8.7-.4s5.8.1,8.7.4c-1.1-11.6-1.6-23.4-1.6-35.4,0-12,.6-24.3,1.6-36.8-5.8.7-11.7.7-17.5,0,.3,4.4.6,9.1.8,14.1.2,5,.4,10,.4,15.1,0,5.1,0,10.1,0,15,0,4.9-.2,9.6-.4,14.1-2.4.7-4.9,1.6-7.3,2.5-2.5.9-4.9,1.7-7.4,2.5-2.5.8-5,1.4-7.5,1.9-2.5.5-5,.8-7.5.8s-3.8-.5-5.1-1.6c-1.2-1.1-2.1-2.6-2.7-4.5-.6-1.9-.9-4.1-1-6.7,0-2.6-.1-5.4-.1-8.4,0-7.6.2-15.3.5-23,.3-7.8.7-15,1.4-21.7h0Z"/>
  <path d="M269.3,86.9c3.3,0,6.4.2,9.1.8,2.7.6,5.2,1.4,7.5,2.4,2.2,1,4.2,2.1,5.9,3.4s3.1,2.6,4.3,4c2-.4,3.2-1.2,3.7-2.3.5-1.1.6-2.4.2-3.8-.4-1.4-1-2.8-2.1-4.2-1-1.4-2-2.6-3.1-3.7-4.5-.3-8.8-.6-13.1-.9-4.3-.3-8.6-.5-13.1-.5s-4.4.4-7,1.1c-2.6.7-5.1,1.8-7.4,3.3-2.3,1.5-4.3,3.4-5.9,5.7-1.6,2.3-2.5,5.2-2.5,8.5s.9,4.5,2.7,6.4c1.8,1.9,4,3.6,6.6,5.1,2.7,1.5,5.5,2.7,8.6,3.8,3.1,1,6,1.8,8.6,2.3,3.3.7,6.4,1.5,9.1,2.5,2.7,1,5.1,2.2,7.1,3.5,2,1.3,3.5,2.7,4.6,4.2,1.1,1.5,1.7,3,1.7,4.6,0,3.4-.8,6.4-2.5,8.9-1.7,2.5-3.8,4.6-6.5,6.3-2.7,1.7-5.6,3-8.9,3.8-3.3.8-6.5,1.2-9.7,1.2s-3.8-.5-6-1.5c-2.2-1-4.5-2.2-6.8-3.8-2.3-1.5-4.7-3.2-7.1-5.1-2.4-1.9-4.7-3.7-6.9-5.5-1.6.5-2.5,1.3-2.8,2.4-.3,1.1-.2,2.2.1,3.5.4,1.2.9,2.5,1.7,3.7.7,1.2,1.3,2.3,1.8,3.1,2.2,1.2,4.3,2.3,6.3,3.2,2,.9,4,1.7,5.9,2.3,2,.6,4,1.1,6.2,1.3,2.2.3,4.6.4,7.3.4,6.2,0,11.8-.5,17-1.6,5.2-1.1,9.6-2.6,13.4-4.7,3.7-2,6.6-4.6,8.7-7.6,2.1-3,3.1-6.5,3.1-10.4s-1.1-6.6-3.2-9.4c-2.1-2.8-4.8-5.3-7.9-7.4-3.1-2.1-6.5-3.9-10.2-5.3-3.6-1.4-7-2.4-10.1-3-1.8-.3-4-.8-6.4-1.5-2.5-.6-4.8-1.4-7-2.3-2.2-.9-4.1-2-5.7-3.1-1.6-1.2-2.4-2.4-2.4-3.7s.5-3.3,1.5-4.7c1-1.3,2.2-2.4,3.5-3.3,1.4-.9,2.8-1.6,4.2-2,1.4-.5,2.6-.7,3.5-.7h0Z"/>
  <path d="M-308.9,191.6c4.2,53.5,4.2,105.3,0,155.4l49.5,2.4c7.5.4,15.4-.5,23.7-2.7,8.3-2.2,16.5-5.3,24.5-9.4,8-4.1,15.7-9,22.9-14.8,7.3-5.8,13.7-12,19.2-18.9,5.6-6.8,10-14.1,13.2-21.7,3.2-7.7,4.9-15.4,4.9-23.2s-1.3-12.4-3.8-18.2c-2.5-5.8-6-11.2-10.3-16.3-4.3-5-9.3-9.5-15.1-13.6-5.8-4-11.9-7.5-18.4-10.3-6.5-2.8-13.1-5-20-6.6-6.8-1.5-13.5-2.3-20-2.3h-70.4ZM-272.7,201.4c5.9-.6,12.2-.6,18.9,0,6.7.6,13.4,1.8,20.1,3.7,6.7,1.9,13.1,4.5,19.3,7.7,6.2,3.2,11.7,7.1,16.4,11.5s8.5,9.6,11.3,15.3c2.8,5.8,4.2,12.2,4.2,19.2s-1.2,11.2-3.5,17.7c-2.3,6.5-5.6,13-9.8,19.4-4.2,6.4-9.2,12.5-15,18.3-5.8,5.8-12.1,10.6-18.9,14.7-6.8,4-14.1,6.8-21.7,8.5-7.6,1.6-15.4,1.4-23.3-.6-.1-5.6-.2-12-.3-19.2,0-7.2-.1-14.8-.1-22.8s0-16.3.1-24.7c0-8.4.2-16.7.4-24.9.2-8.2.5-16,.7-23.5.3-7.5.6-14.3,1.1-20.3h0Z"/>
  <path d="M-131.9,191.2c4.2,53.5,4.2,105.3,0,155.4l109.1,3.3c4.2.1,7.9-1.1,10.9-3.5,3-2.5,5.1-5.2,6.1-8.1,1.1-2.9,1-5.5-.3-7.7-1.3-2.2-3.9-3-8-2.4v-.2c-13.7,3.7-27.4,6.5-41.2,8.4-13.8,1.9-28.1,2.5-42.9,2,0-5.7,0-12-.1-18.9,0-6.9-.1-14-.1-21.5s0-15.1.1-22.9c0-7.9.2-15.7.5-23.5,9.3-.1,18.7-.1,28.2,0,9.5.1,19.3,1.4,29.5,3.7-1.1-2.8-1.7-5.8-1.6-8.9,0-3.1.6-6.4,1.6-9.8-9.7,2.8-19.3,4.4-28.7,4.6-9.4.2-19,.3-28.5.2.1-3,.2-6.2.3-9.6,0-3.4.2-6.9.3-10.4.1-3.5.3-7.1.4-10.6.1-3.5.4-6.8.6-9.9,5.9.2,12.2.7,18.7,1.4,6.6.7,13.1,1.6,19.6,2.7,6.5,1.1,12.8,2.4,18.9,3.9,6.1,1.5,11.7,3.2,16.8,5v-.2c3.5.7,5.9,0,7.2-2.3,1.3-2.3,1.6-5,1-8-.6-3-2.1-5.9-4.3-8.5-2.3-2.7-5.2-4-8.9-4l-104.8.2h-.2Z"/>
  <path d="M32.2,8.8c3.2,0,6.1.2,8.7.8,2.6.6,5,1.3,7.1,2.3,2.1.9,4,2,5.6,3.3,1.6,1.2,3,2.5,4.1,3.8,1.9-.4,3.1-1.1,3.6-2.2.5-1.1.6-2.3.2-3.6-.3-1.3-1-2.7-2-4-1-1.3-2-2.5-3-3.5-4.3-.3-8.4-.6-12.5-.9-4.1-.3-8.2-.5-12.5-.5s-4.2.3-6.7,1c-2.5.7-4.9,1.7-7.1,3.2-2.2,1.4-4.1,3.3-5.7,5.5-1.6,2.2-2.3,4.9-2.3,8.1s.8,4.3,2.5,6.1c1.7,1.8,3.8,3.5,6.3,4.9,2.5,1.4,5.3,2.6,8.2,3.6,2.9,1,5.7,1.7,8.3,2.2,3.2.7,6.1,1.5,8.7,2.4,2.6,1,4.9,2.1,6.8,3.3,1.9,1.2,3.3,2.6,4.4,4,1.1,1.4,1.6,2.9,1.6,4.4,0,3.2-.8,6.1-2.4,8.5-1.6,2.4-3.7,4.4-6.2,6.1-2.5,1.6-5.4,2.8-8.5,3.6-3.1.8-6.2,1.2-9.3,1.2s-3.7-.5-5.8-1.4c-2.1-.9-4.3-2.1-6.5-3.6-2.2-1.5-4.5-3.1-6.8-4.9-2.3-1.8-4.5-3.5-6.6-5.2-1.5.5-2.4,1.3-2.7,2.3-.3,1-.2,2.1.1,3.3.4,1.2.9,2.4,1.6,3.5.7,1.2,1.3,2.2,1.7,3,2.1,1.2,4.1,2.2,6.1,3.1,1.9.9,3.8,1.6,5.7,2.2,1.9.6,3.8,1,5.9,1.3,2.1.3,4.4.4,6.9.4,5.9,0,11.3-.5,16.2-1.5,4.9-1,9.2-2.5,12.8-4.5,3.6-2,6.4-4.4,8.4-7.3,2-2.9,3-6.2,3-9.9s-1-6.3-3.1-9c-2-2.7-4.6-5.1-7.6-7.1-3-2-6.2-3.7-9.7-5.1-3.5-1.3-6.7-2.3-9.6-2.8-1.8-.3-3.8-.8-6.1-1.4-2.3-.6-4.6-1.3-6.7-2.2-2.1-.9-3.9-1.9-5.4-3-1.5-1.1-2.3-2.3-2.3-3.5s.5-3.2,1.4-4.5,2.1-2.3,3.4-3.2c1.3-.9,2.7-1.5,4-1.9,1.4-.4,2.5-.7,3.4-.7h0Z"/>
  <path d="M79.2,6c1.9,23.8,1.9,46.8,0,69l48.4,1.5c1.3,0,2.4-.2,3.4-.7,1-.5,1.8-1.2,2.5-2,.7-.8,1.2-1.7,1.5-2.6.3-.9.3-1.8.1-2.6-.2-.8-.6-1.4-1.3-1.8-.7-.4-1.6-.6-2.8-.4h0c-6.1,1.6-12.2,2.8-18.3,3.6-6.1.8-12.5,1.1-19.1.9,0-4.1.1-8.7.1-13.7,0-5,.1-10.4.3-16,.2-5.6.4-11.4.6-17.4.3-6,.6-11.9,1.1-17.9-5.6.7-11.1.7-16.7,0h0Z"/>
  <path d="M134.5,40.8c0,5,1,9.7,3.1,14.1,2.1,4.4,5,8.2,8.6,11.5,3.6,3.3,7.9,5.8,12.7,7.7,4.9,1.9,10,2.8,15.5,2.8s10.7-.9,15.5-2.8c4.9-1.9,9.1-4.4,12.7-7.7,3.6-3.3,6.5-7.1,8.6-11.5,2.1-4.4,3.1-9.1,3.1-14.1s-1-9.7-3.1-14.1c-2.1-4.4-5-8.2-8.6-11.5-3.6-3.3-7.9-5.9-12.7-7.8-4.9-1.9-10-2.8-15.5-2.8s-10.7.9-15.5,2.8c-4.9,1.9-9.1,4.5-12.7,7.8-3.6,3.3-6.5,7.1-8.6,11.5-2.1,4.4-3.1,9.1-3.1,14.1h0ZM150,40.7c0-4.3.7-8.4,2-12.2,1.3-3.8,3.1-7.1,5.4-10,2.3-2.9,4.9-5.1,7.9-6.8,3-1.6,6.3-2.5,9.7-2.5s6.7.8,9.7,2.5c3,1.6,5.7,3.9,7.9,6.8,2.3,2.9,4,6.2,5.4,10,1.3,3.8,2,7.9,2,12.2s-.7,8.4-2,12.2c-1.3,3.8-3.1,7.1-5.4,9.9-2.3,2.8-4.9,5.1-7.9,6.7-3,1.6-6.3,2.5-9.7,2.5s-6.7-.8-9.7-2.5c-3-1.7-5.7-3.9-7.9-6.7-2.3-2.8-4-6.1-5.4-9.9-1.3-3.8-2-7.9-2-12.2h0Z"/>
  <path d="M269.8,75.1h0c.6,0,1.4-.1,2.3-.2.9,0,1.8-.1,2.6-.1s1.7,0,2.6,0c.8,0,1.5.1,2.1.2,3.7-11.2,7.8-22.6,12.2-34.1,4.4-11.5,9.3-23.4,14.5-35.5-3.6.7-6.8.7-9.6,0-3,8.7-6.1,17.3-9.2,25.8-3.1,8.5-6.4,16.9-9.8,25.2-1.8-3.9-3.6-7.8-5.2-11.7-1.7-3.9-3.3-7.9-4.8-11.9,1.8-4.5,3.7-9,5.5-13.6,1.9-4.6,3.8-9.2,5.8-13.9-3.6.7-6.8.7-9.6,0-.9,2.8-1.9,5.6-2.9,8.3-1,2.8-2,5.5-3,8.3-1-2.7-2-5.4-3-8-1-2.7-1.9-5.4-2.8-8.1-5.4.7-11,.6-16.7,0,2.9,5.8,5.6,11.6,8.2,17.3,2.6,5.7,5.1,11.4,7.5,17-1.1,2.8-2.1,5.6-3.2,8.2-1.1,2.7-2.1,5.4-3.2,8.1-3.8-8.2-7.3-16.5-10.5-24.9-3.3-8.4-6.4-16.9-9.3-25.6-5.4.7-11,.6-16.7,0,5.9,12,11.3,23.7,16.1,35.1,4.8,11.4,9,22.7,12.8,33.9h0c.6,0,1.4-.1,2.3-.2.9,0,1.8-.1,2.6-.1s1.7,0,2.6,0c.8,0,1.5.1,2.1.2,1.3-4.1,2.7-8.2,4.1-12.2,1.4-4.1,2.9-8.3,4.5-12.5,1.6,4.2,3.2,8.3,4.7,12.4,1.5,4.1,2.9,8.2,4.3,12.2h0Z"/>
</svg>