<?xml version="1.0" encoding="UTF-8"?>
<svg id="Layer_1" xmlns="http://www.w3.org/2000/svg" version="1.1" viewBox="0 0 500.3 518.1">
  <!-- Generator: Adobe Illustrator 29.0.1, SVG Export Plug-In . SVG Version: 2.1.0 Build 192)  -->
  <path d="M196.9,394.6c.9,11.8.9,23.2,0,34.2l24,.7c.6,0,1.2,0,1.7-.4.5-.3.9-.6,1.3-1,.3-.4.6-.8.7-1.3.1-.5.2-.9,0-1.3,0-.4-.3-.7-.6-.9-.3-.2-.8-.3-1.4-.2h0c-3,.8-6,1.4-9.1,1.8-3,.4-6.2.6-9.4.4v-6.8c0-2.5,0-5.1.1-7.9,0-2.8.2-5.6.3-8.6s.3-5.9.6-8.8c-2.8.3-5.5.3-8.3,0h0Z"/>
  <path d="M228.7,429c.8-.1,1.6-.2,2.4-.2s1.5,0,2.2.2c.6-1.2,1.2-2.5,1.8-3.7s1.3-2.5,1.9-3.8h16.2c.4,1.3.9,2.5,1.3,3.7.4,1.2.8,2.5,1.2,3.7,1.3-.1,2.7-.2,4-.2s2.8,0,4.2.2c-2.7-5.5-5.2-11-7.4-16.7-2.2-5.7-4.3-11.5-6.1-17.4-2.7.3-5.5.3-8.3,0,.4.9.8,1.7,1.2,2.6.4.8.8,1.7,1.2,2.6-2.5,5-5.1,10-7.8,14.8-2.6,4.8-5.3,9.6-8.1,14.3h.1ZM246.4,404.1c1.1,2.5,2.1,4.9,3.1,7.4,1,2.4,1.9,4.9,2.8,7.3h-13.8c1.3-2.4,2.6-4.8,3.9-7.3,1.3-2.4,2.7-4.9,4.1-7.4h-.1Z"/>
  <path d="M291.7,428.9c1.3-.1,2.6-.2,4-.2s2.8,0,4.3.2c-1.8-1.7-3.5-3.5-5.2-5.2-1.7-1.8-3.3-3.5-5-5.3,1.5-.7,3-1.5,4.3-2.4s2.4-1.9,3.4-2.9c.9-1,1.7-2.2,2.2-3.4.5-1.2.8-2.5.8-3.9s-.6-3.5-1.7-4.9-2.5-2.5-4.2-3.5c-1.7-.9-3.6-1.6-5.6-2.1s-3.9-.7-5.7-.7h-14.7c.9,11.8.9,23.2,0,34.2,1.4-.1,2.8-.2,4.1-.2s2.7,0,4.1.2c-.1-1-.2-2.1-.3-3.1,0-1.1-.1-2.2-.2-3.4,1.4-.2,2.7-.5,4.1-.9,1.4-.3,2.7-.7,4-1.1,1.2,1.4,2.4,2.9,3.6,4.3s2.3,2.8,3.5,4.2h.2ZM276.8,396.9c.9-.1,1.9,0,3.1,0,1.2.1,2.4.4,3.6.8s2.5.8,3.7,1.3,2.3,1.2,3.2,1.9,1.7,1.5,2.2,2.3c.6.8.8,1.7.8,2.6,0,1.7-.5,3.3-1.3,4.8s-2,2.8-3.5,4-3.3,2.3-5.4,3.2c-2.1.9-4.4,1.7-7,2.3,0-2-.1-4-.1-6v-6.1c0-2,.1-3.9.2-5.8,0-1.9.2-3.7.3-5.4h.2Z"/>
  <path d="M312.4,411.8c0-2.2.5-4.2,1.4-6,.9-1.9,2.1-3.5,3.6-4.9s3.1-2.5,4.9-3.4c1.8-.8,3.5-1.2,5.3-1.3,1.6,0,3,.2,4.3.6,1.3.5,2.5,1,3.6,1.7s2,1.4,2.9,2.1l2.1,2.1c.9-.2,1.5-.6,1.8-1.1s.3-1.1.1-1.8c-.2-.7-.5-1.3-1-2s-1-1.2-1.5-1.7c-1.1,0-2.1-.2-3.1-.4-1-.2-2.1-.5-3.1-.8-1.1-.3-2.1-.5-3.1-.7s-2.1-.3-3.1-.3c-3.7,0-6.9.5-9.7,1.4-2.8.9-5.2,2.2-7.1,3.8-1.9,1.6-3.3,3.5-4.3,5.7s-1.5,4.5-1.5,7,.5,4.8,1.6,6.9c1.1,2.2,2.6,4,4.6,5.6s4.3,2.8,7,3.8c2.7.9,5.8,1.4,9.1,1.4s2.7,0,3.9-.3c1.2-.2,2.3-.5,3.3-.8,1.1-.4,2.1-.9,3.2-1.4,1.1-.6,2.2-1.3,3.4-2,.2-.6.5-1.2.9-2s.7-1.6.9-2.3c.2-.8.2-1.5,0-2.2s-.7-1.2-1.5-1.5c-1,1.9-2.2,3.5-3.4,4.7-1.3,1.3-2.5,2.3-3.8,3.1-1.3.8-2.6,1.4-3.8,1.7-1.2.3-2.3.5-3.3.5-1.7,0-3.4-.4-5.1-1.2-1.7-.8-3.3-1.8-4.7-3.2s-2.5-3-3.4-4.8c-.9-1.9-1.3-3.9-1.3-6h0Z"/>
  <path d="M372.9,428.9c1.4-.1,2.8-.2,4.1-.2s2.7,0,4.1.2c-.5-5.5-.8-11.1-.7-16.8,0-5.7.3-11.5.7-17.4-2.8.3-5.5.3-8.3,0,.3,3.6.5,7.1.6,10.5h-18.2c0-1.7.1-3.5.3-5.2.1-1.8.2-3.5.4-5.3-2.8.3-5.5.3-8.3,0,.9,11.8.9,23.2,0,34.2,1.4-.1,2.8-.2,4.1-.2s2.7,0,4.1.2c-.7-6.7-.9-13.6-.7-20.7h18.3v10.5c-.1,3.4-.3,6.8-.6,10.2h.1Z"/>
  <path d="M385.8,429c.8-.1,1.6-.2,2.4-.2s1.5,0,2.2.2c.6-1.2,1.2-2.5,1.8-3.7.6-1.2,1.3-2.5,1.9-3.8h16.2c.4,1.3.9,2.5,1.3,3.7s.8,2.5,1.2,3.7c1.3-.1,2.7-.2,4-.2s2.8,0,4.2.2c-2.7-5.5-5.2-11-7.4-16.7-2.2-5.7-4.3-11.5-6.1-17.4-2.7.3-5.5.3-8.3,0,.4.9.8,1.7,1.2,2.6.4.8.8,1.7,1.2,2.6-2.5,5-5.1,10-7.8,14.8-2.6,4.8-5.3,9.6-8.1,14.3h0ZM403.6,404.1c1.1,2.5,2.1,4.9,3.1,7.4,1,2.4,1.9,4.9,2.8,7.3h-13.8c1.3-2.4,2.6-4.8,3.9-7.3,1.3-2.4,2.7-4.9,4.1-7.4h-.1Z"/>
  <path d="M426.7,428.8c.9-.1,1.8-.2,2.6-.2s1.8,0,2.7.2c-.2-4-.4-8-.4-12.1v-12.4c3.9,4.2,7.6,8.4,11.1,12.5s6.9,8.1,10.2,12.2c.7,0,1.3,0,2-.1h3.2c-.3-5.5-.5-11.1-.5-16.8s.2-11.5.5-17.4c-1.7.3-3.5.3-5.3,0,.2,4.5.4,8.9.4,13.2s0,8.6-.1,12.8c-3.9-4.2-7.8-8.5-11.5-12.8s-7.4-8.7-11-13.2c-1.2.1-2.6.2-4,.2s-2.8,0-4.3-.3c.7.8,1.5,1.6,2.2,2.3.7.7,1.4,1.5,2.2,2.3.2,5.1.3,10.1.2,15,0,4.9-.2,9.8-.4,14.6h.2Z"/>
  <path d="M476.7,429c1.4-.1,2.8-.2,4.1-.2s2.7,0,4.1.2c-.2-4.2-.3-7.9-.4-10.9-.1-3.1-.2-5.7-.2-7.9v-9.1c0-1,.1-1.7.2-2.3,0-.6.2-1.2.3-1.7,1.3,0,2.4.2,3.4.3.9.1,1.8.3,2.7.6.8.2,1.7.5,2.5.8s1.8.7,2.9,1.1h0c.8.1,1.3,0,1.6-.6.3-.5.3-1.1.2-1.8-.1-.7-.5-1.3-1-1.9s-1.1-.9-2-.9h-13.7c0,.1-15.1,0-15.1,0-.6,0-1.1.1-1.6.4-.5.2-.8.6-1.1.9-.3.4-.5.8-.6,1.2v1.1c.1.3.3.6.7.8.3.2.8.2,1.3.1h0c1.1-.3,2.2-.6,3.1-.9s1.8-.5,2.6-.7c.9-.2,1.8-.4,2.7-.5.9-.1,2.1-.2,3.3-.3.8,11.1.7,21.8-.1,32.2h.1Z"/>
  <path d="M196.3,169c2.9-.3,5.9-.4,8.7-.4s5.8.1,8.7.4c-1.4-14.3-1.9-29-1.5-44.1h13.1c4.4,0,9,.6,13.7,1.7-.5-1.3-.8-2.7-.7-4.1,0-1.4.3-3,.7-4.6-4.5,1.3-9,2-13.4,2.2-4.4,0-8.8,0-13.3,0,0-3,.2-6.2.3-9.4.1-3.2.3-6.3.6-9.4,2.7,0,5.6.3,8.7.6,3,.3,6.1.7,9.1,1.3,3,.5,5.9,1.1,8.7,1.8,2.8.7,5.4,1.5,7.8,2.3h0c1.6.3,2.7,0,3.3-1.2s.7-2.3.4-3.7c-.3-1.4-1-2.7-2-4-1-1.2-2.4-1.9-4.1-1.9h-49c2,24.8,2,48.9,0,72.2h0l.2.3Z"/>
  <path d="M251.7,133.1c0,5.2,1.1,10.1,3.3,14.7,2.2,4.6,5.2,8.6,9,12s8.2,6.1,13.3,8.1c5.1,2,10.5,2.9,16.2,2.9s11.2-1,16.2-2.9c5.1-2,9.5-4.6,13.3-8.1,3.8-3.4,6.8-7.4,9-12s3.3-9.5,3.3-14.7-1.1-10.1-3.3-14.7c-2.2-4.6-5.2-8.6-9-12s-8.2-6.1-13.3-8.1c-5.1-2-10.5-3-16.2-3s-11.2,1-16.2,3c-5.1,2-9.5,4.7-13.3,8.1s-6.8,7.4-9,12c-2.2,4.6-3.3,9.5-3.3,14.7h0ZM267.9,132.9c0-4.5.7-8.8,2.1-12.8s3.2-7.4,5.6-10.4,5.1-5.3,8.3-7.1c3.2-1.7,6.6-2.6,10.2-2.6s7,.9,10.2,2.6,5.9,4.1,8.3,7.1,4.2,6.5,5.6,10.4c1.4,4,2.1,8.2,2.1,12.8s-.7,8.8-2.1,12.8-3.2,7.4-5.6,10.4-5.1,5.3-8.3,7c-3.2,1.7-6.6,2.6-10.2,2.6s-7-.9-10.2-2.6c-3.2-1.7-5.9-4.1-8.3-7-2.4-3-4.2-6.4-5.6-10.4s-2.1-8.2-2.1-12.8h0Z"/>
  <path d="M361.6,96.7c-5.8.7-11.7.7-17.5,0,.6,7.6,1,15.1,1.2,22.4.2,7.4.3,14.7.1,22,0,4.3.2,8.3.8,11.9.6,3.7,1.6,6.8,3,9.4,1.4,2.6,3.2,4.7,5.5,6.1,2.3,1.5,5,2.2,8.2,2.2s6.5-.3,9.5-.9c3-.6,5.9-1.4,8.7-2.4,2.8-.9,5.6-2,8.3-3.1,2.8-1.1,5.5-2.2,8.3-3.2-.1,1.4-.2,2.8-.3,4.1,0,1.3-.2,2.6-.3,3.7,2.9-.3,5.9-.4,8.7-.4s5.8.1,8.7.4c-1.1-11.6-1.6-23.4-1.6-35.4s.6-24.3,1.6-36.8c-5.8.7-11.7.7-17.5,0,.3,4.4.6,9.1.8,14.1.2,5,.4,10,.4,15.1v15c0,4.9-.2,9.6-.4,14.1-2.4.7-4.9,1.6-7.3,2.5-2.5.9-4.9,1.7-7.4,2.5s-5,1.4-7.5,1.9-5,.8-7.5.8-3.8-.5-5.1-1.6c-1.2-1.1-2.1-2.6-2.7-4.5s-.9-4.1-1-6.7c0-2.6-.1-5.4-.1-8.4,0-7.6.2-15.3.5-23,.3-7.8.7-15,1.4-21.7h.5Z"/>
  <path d="M456.5,99.6c3.3,0,6.4.2,9.1.8,2.7.6,5.2,1.4,7.5,2.4,2.2,1,4.2,2.1,5.9,3.4s3.1,2.6,4.3,4c2-.4,3.2-1.2,3.7-2.3.5-1.1.6-2.4.2-3.8s-1-2.8-2.1-4.2c-1-1.4-2-2.6-3.1-3.7-4.5-.3-8.8-.6-13.1-.9-4.3-.3-8.6-.5-13.1-.5s-4.4.4-7,1.1-5.1,1.8-7.4,3.3-4.3,3.4-5.9,5.7c-1.6,2.3-2.5,5.2-2.5,8.5s.9,4.5,2.7,6.4c1.8,1.9,4,3.6,6.6,5.1,2.7,1.5,5.5,2.7,8.6,3.8,3.1,1,6,1.8,8.6,2.3,3.3.7,6.4,1.5,9.1,2.5s5.1,2.2,7.1,3.5,3.5,2.7,4.6,4.2,1.7,3,1.7,4.6c0,3.4-.8,6.4-2.5,8.9s-3.8,4.6-6.5,6.3-5.6,3-8.9,3.8-6.5,1.2-9.7,1.2-3.8-.5-6-1.5-4.5-2.2-6.8-3.8c-2.3-1.5-4.7-3.2-7.1-5.1-2.4-1.9-4.7-3.7-6.9-5.5-1.6.5-2.5,1.3-2.8,2.4-.3,1.1-.2,2.2.1,3.5.4,1.2.9,2.5,1.7,3.7.7,1.2,1.3,2.3,1.8,3.1,2.2,1.2,4.3,2.3,6.3,3.2s4,1.7,5.9,2.3c2,.6,4,1.1,6.2,1.3,2.2.3,4.6.4,7.3.4,6.2,0,11.8-.5,17-1.6s9.6-2.6,13.4-4.7c3.7-2,6.6-4.6,8.7-7.6s3.1-6.5,3.1-10.4-1.1-6.6-3.2-9.4c-2.1-2.8-4.8-5.3-7.9-7.4-3.1-2.1-6.5-3.9-10.2-5.3-3.6-1.4-7-2.4-10.1-3-1.8-.3-4-.8-6.4-1.5-2.5-.6-4.8-1.4-7-2.3s-4.1-2-5.7-3.1c-1.6-1.2-2.4-2.4-2.4-3.7s.5-3.3,1.5-4.7c1-1.3,2.2-2.4,3.5-3.3,1.4-.9,2.8-1.6,4.2-2,1.4-.5,2.6-.7,3.5-.7h0l.4.3Z"/>
  <path d="M195.3,200.3c4.2,53.5,4.2,105.3,0,155.4l49.5,2.4c7.5.4,15.4-.5,23.7-2.7s16.5-5.3,24.5-9.4,15.7-9,22.9-14.8c7.3-5.8,13.7-12,19.2-18.9,5.6-6.8,10-14.1,13.2-21.7,3.2-7.7,4.9-15.4,4.9-23.2s-1.3-12.4-3.8-18.2-6-11.2-10.3-16.3c-4.3-5-9.3-9.5-15.1-13.6-5.8-4-11.9-7.5-18.4-10.3s-13.1-5-20-6.6c-6.8-1.5-13.5-2.3-20-2.3h-70.4v.2ZM231.5,210.2c5.9-.6,12.2-.6,18.9,0,6.7.6,13.4,1.8,20.1,3.7s13.1,4.5,19.3,7.7c6.2,3.2,11.7,7.1,16.4,11.5s8.5,9.6,11.3,15.3c2.8,5.8,4.2,12.2,4.2,19.2s-1.2,11.2-3.5,17.7-5.6,13-9.8,19.4c-4.2,6.4-9.2,12.5-15,18.3s-12.1,10.6-18.9,14.7c-6.8,4-14.1,6.8-21.7,8.5-7.6,1.6-15.4,1.4-23.3-.6-.1-5.6-.2-12-.3-19.2,0-7.2-.1-14.8-.1-22.8s0-16.3.1-24.7c0-8.4.2-16.7.4-24.9.2-8.2.5-16,.7-23.5.3-7.5.6-14.3,1.1-20.3h.1Z"/>
  <path d="M372.3,200c4.2,53.5,4.2,105.3,0,155.4l109.1,3.3c4.2.1,7.9-1.1,10.9-3.5,3-2.5,5.1-5.2,6.1-8.1,1.1-2.9,1-5.5-.3-7.7s-3.9-3-8-2.4v-.2c-13.7,3.7-27.4,6.5-41.2,8.4-13.8,1.9-28.1,2.5-42.9,2,0-5.7,0-12-.1-18.9,0-6.9-.1-14-.1-21.5s0-15.1.1-22.9c0-7.9.2-15.7.5-23.5,9.3-.1,18.7-.1,28.2,0s19.3,1.4,29.5,3.7c-1.1-2.8-1.7-5.8-1.6-8.9,0-3.1.6-6.4,1.6-9.8-9.7,2.8-19.3,4.4-28.7,4.6-9.4.2-19,.3-28.5.2.1-3,.2-6.2.3-9.6,0-3.4.2-6.9.3-10.4.1-3.5.3-7.1.4-10.6s.4-6.8.6-9.9c5.9.2,12.2.7,18.7,1.4,6.6.7,13.1,1.6,19.6,2.7,6.5,1.1,12.8,2.4,18.9,3.9s11.7,3.2,16.8,5v-.2c3.5.7,5.9,0,7.2-2.3,1.3-2.3,1.6-5,1-8s-2.1-5.9-4.3-8.5c-2.3-2.7-5.2-4-8.9-4l-104.8.2h-.4Z"/>
  <path d="M226.4,4.5c3.2,0,6.1.2,8.7.8,2.6.6,5,1.3,7.1,2.3,2.1.9,4,2,5.6,3.3,1.6,1.2,3,2.5,4.1,3.8,1.9-.4,3.1-1.1,3.6-2.2.5-1.1.6-2.3.2-3.6-.3-1.3-1-2.7-2-4-1-1.3-2-2.5-3-3.5-4.3-.3-8.4-.6-12.5-.9C234.1.2,230,0,225.7,0s-4.2.3-6.7,1c-2.5.7-4.9,1.7-7.1,3.2-2.2,1.4-4.1,3.3-5.7,5.5-1.6,2.2-2.3,4.9-2.3,8.1s.8,4.3,2.5,6.1c1.7,1.8,3.8,3.5,6.3,4.9s5.3,2.6,8.2,3.6c2.9,1,5.7,1.7,8.3,2.2,3.2.7,6.1,1.5,8.7,2.4,2.6,1,4.9,2.1,6.8,3.3,1.9,1.2,3.3,2.6,4.4,4,1.1,1.4,1.6,2.9,1.6,4.4,0,3.2-.8,6.1-2.4,8.5-1.6,2.4-3.7,4.4-6.2,6.1-2.5,1.6-5.4,2.8-8.5,3.6-3.1.8-6.2,1.2-9.3,1.2s-3.7-.5-5.8-1.4-4.3-2.1-6.5-3.6-4.5-3.1-6.8-4.9c-2.3-1.8-4.5-3.5-6.6-5.2-1.5.5-2.4,1.3-2.7,2.3s-.2,2.1.1,3.3c.4,1.2.9,2.4,1.6,3.5.7,1.2,1.3,2.2,1.7,3,2.1,1.2,4.1,2.2,6.1,3.1,1.9.9,3.8,1.6,5.7,2.2s3.8,1,5.9,1.3c2.1.3,4.4.4,6.9.4,5.9,0,11.3-.5,16.2-1.5s9.2-2.5,12.8-4.5c3.6-2,6.4-4.4,8.4-7.3,2-2.9,3-6.2,3-9.9s-1-6.3-3.1-9c-2-2.7-4.6-5.1-7.6-7.1s-6.2-3.7-9.7-5.1c-3.5-1.3-6.7-2.3-9.6-2.8-1.8-.3-3.8-.8-6.1-1.4s-4.6-1.3-6.7-2.2c-2.1-.9-3.9-1.9-5.4-3s-2.3-2.3-2.3-3.5.5-3.2,1.4-4.5,2.1-2.3,3.4-3.2c1.3-.9,2.7-1.5,4-1.9,1.4-.4,2.5-.7,3.4-.7h.4Z"/>
  <path d="M273.4,1.7c1.9,23.8,1.9,46.8,0,69l48.4,1.5c1.3,0,2.4-.2,3.4-.7s1.8-1.2,2.5-2,1.2-1.7,1.5-2.6.3-1.8.1-2.6c-.2-.8-.6-1.4-1.3-1.8-.7-.4-1.6-.6-2.8-.4h0c-6.1,1.6-12.2,2.8-18.3,3.6-6.1.8-12.5,1.1-19.1.9,0-4.1.1-8.7.1-13.7s.1-10.4.3-16c.2-5.6.4-11.4.6-17.4.3-6,.6-11.9,1.1-17.9-5.6.7-11.1.7-16.7,0h.2Z"/>
  <path d="M328.7,36.5c0,5,1,9.7,3.1,14.1,2.1,4.4,5,8.2,8.6,11.5,3.6,3.3,7.9,5.8,12.7,7.7,4.9,1.9,10,2.8,15.5,2.8s10.7-.9,15.5-2.8c4.9-1.9,9.1-4.4,12.7-7.7s6.5-7.1,8.6-11.5,3.1-9.1,3.1-14.1-1-9.7-3.1-14.1-5-8.2-8.6-11.5-7.9-5.9-12.7-7.8c-4.9-1.9-10-2.8-15.5-2.8s-10.7.9-15.5,2.8c-4.9,1.9-9.1,4.5-12.7,7.8s-6.5,7.1-8.6,11.5-3.1,9.1-3.1,14.1h0ZM344.2,36.4c0-4.3.7-8.4,2-12.2,1.3-3.8,3.1-7.1,5.4-10s4.9-5.1,7.9-6.8c3-1.6,6.3-2.5,9.7-2.5s6.7.8,9.7,2.5c3,1.6,5.7,3.9,7.9,6.8,2.3,2.9,4,6.2,5.4,10,1.3,3.8,2,7.9,2,12.2s-.7,8.4-2,12.2-3.1,7.1-5.4,9.9-4.9,5.1-7.9,6.7-6.3,2.5-9.7,2.5-6.7-.8-9.7-2.5c-3-1.7-5.7-3.9-7.9-6.7-2.3-2.8-4-6.1-5.4-9.9-1.3-3.8-2-7.9-2-12.2h0Z"/>
  <path d="M464,70.8h0c.6,0,1.4,0,2.3-.2.9,0,1.8,0,2.6,0h2.6c.8,0,1.5,0,2.1.2,3.7-11.2,7.8-22.6,12.2-34.1,4.4-11.5,9.3-23.4,14.5-35.5-3.6.7-6.8.7-9.6,0-3,8.7-6.1,17.3-9.2,25.8s-6.4,16.9-9.8,25.2c-1.8-3.9-3.6-7.8-5.2-11.7-1.7-3.9-3.3-7.9-4.8-11.9,1.8-4.5,3.7-9,5.5-13.6,1.9-4.6,3.8-9.2,5.8-13.9-3.6.7-6.8.7-9.6,0-.9,2.8-1.9,5.6-2.9,8.3-1,2.8-2,5.5-3,8.3-1-2.7-2-5.4-3-8-1-2.7-1.9-5.4-2.8-8.1-5.4.7-11,.6-16.7,0,2.9,5.8,5.6,11.6,8.2,17.3s5.1,11.4,7.5,17c-1.1,2.8-2.1,5.6-3.2,8.2-1.1,2.7-2.1,5.4-3.2,8.1-3.8-8.2-7.3-16.5-10.5-24.9-3.3-8.4-6.4-16.9-9.3-25.6-5.4.7-11,.6-16.7,0,5.9,12,11.3,23.7,16.1,35.1,4.8,11.4,9,22.7,12.8,33.9h0c.6,0,1.4,0,2.3-.2.9,0,1.8,0,2.6,0h2.6c.8,0,1.5,0,2.1.2,1.3-4.1,2.7-8.2,4.1-12.2,1.4-4.1,2.9-8.3,4.5-12.5,1.6,4.2,3.2,8.3,4.7,12.4s2.9,8.2,4.3,12.2h0v.4Z"/>
</svg>