<?xml version="1.0" encoding="UTF-8"?>
<svg id="Layer_1" xmlns="http://www.w3.org/2000/svg" version="1.1" viewBox="0 0 500.3 518.1">
  <!-- Generator: Adobe Illustrator 29.0.1, SVG Export Plug-In . SVG Version: 2.1.0 Build 192)  -->
  <defs>
    <style>
      .st0 {
        fill: #fff;
      }

      .st0, .st1 {
        fill-rule: evenodd;
      }

      .st1 {
        fill: #e94d4d;
      }
    </style>
  </defs>
  <path class="st1" d="M76.2,202.6c3.8-6.7,6.5-10.7,6.5-10.7l2.6-12.8c-1.4,1.7-8.6,5.9-11.6,4.3-5.9-3-18.7-3.2-18.7-3.2l10.2-4.6,9.4-4.1,5.6-13.2c-2.2-.4-4.2-1-5.8-1.6-5.1-2.1-10.2-17.1,1.6-32.1,1.9-2.4,3.8-4.2,5.7-5.7h-.2s-3.1-36.1,6.4-38.5c0,0,22.3.2,29-5.1,6.7-5.3,4.5,9.4,4.5,9.4,0,0-11.8,8.8-15.7,10.9-4,2.1,5.4,21,5.4,21l2,2.5c5,2.3,10.3,4.8,10.3,4.8l19.4-9.8-1.6-2.4c.3-.9,7.6-35.2,7.6-35.2l10.8-23.4,12.5,8.7,16.2-10.3,5,17.9,18.5-2.3-22.6,14.3,4.1,11.6s-4.5-2.5-11.6.2-11.1,23.1-11.1,23.1l-15-6.6h-1.7c8.4,5.7,9,19.4,9,19.4l7-.6,7.1,15.2s-3.2-3.4-7.5-6.5c-4.3-3.2-20.1,4.2-20.1,4.2-8-4-11.7,15.8-11.7,15.8,3.9,9.4,19.8,3.1,29.6,4.8s2.1,9,2.1,9c0,0-19.2,10.5-22.4,13.2-3.1,2.7-25.3-1.2-26.3.6s-11.7,14.9-7.1,21.4,62-18.5,62-18.5l24.5-21.1c-8.4-12.3,2.6-24.2,2.6-24.2l12.5-13.5,6.9,9.7,22.4-6.6-12.3,19,30.4,7.1-17.4-.3,3.8,9.8-8.1-3.4-3.7,16.4s-2.4-4-5.8-5.8c-16.2-8.3-55.5,59.5-49,68.5l.6.6c-.2-.2-.5-.4-.6-.6-2.2-2.2-9.9-9.9-15.4-20.3-6.5-12.3-75.3,40.1-75.3,40.1,0,0,29.7-8.1,26.1-4.3-3.6,3.8-37.3,56.7-25.4,58.8,12,2.1,44.7-35.3,44.7-35.3,6.7-8.3,21,.4,21,.4,0,0,65,41.1,64,25.9s12.9-15.7,12.9-15.7l30.3,4.4-17.9,5.6,6.7,10.8,15.6,9.9-14.8,2.8-3.7,23-2.2-11.8-14-5.3-31.4,11.4s18.3-12.1,17.8-12.2c-.4-.1-61.1-20.6-61.1-20.6l-33.5,40.5c3.8,1,25.5,7.6,41.3,32.7,0,0,16,3,16.3,2.9s12-14.2,12-14.2l13.7-1.1s6.4,12.1-.6,14.5c-7.1,2.4-10.3,8.4-10.3,8.4l-6.2,13.3-8.6-4-13.2,11.2-15.2-9.2-26.5-21.9s-20.3-1.1-23.7,3.7c-2.8,4-10.6-2.7-15.3-8.2h0s-8,44.9,2.2,58.8,33,53.8,67.4,56.2c0,0,45.3,8.1,65.2-5.4s27.1-8.7,27.1-8.7c0,0-13.4,11.8-16.3,14.1-2.9,2.3-13.5,12.3-13.5,12.3,0,0-77,29.1-115.7-10.6,0,0-40.6-35.5-42-55.3,0,0-9.6-59.7-5.5-69.9,4.2-10.2-5.6-6.8-5.6-6.8l2.5-8.2,7.7-25h0c-5.4-8-8.8-16.5-10.9-25.1v.5s-3.7,28.8-36.9,28c0,0,2.2-5.7,4.6-13.6l-1.5,3.2c-3.5,8.3-12.1,19.3-17.5,25.8-.4,1-1.6-2.4-1.4-6.2.5-9.8,1.5-16,1.5-16,5.3-40.2,10.9-73.8,10.9-73.8-8.4-17.2,26-34.2,26-34.2l37.2-17h.2ZM101.9,144s5.7,3.3,9.5.6,4.9-7.6,3.5-8.8c0,0-7.9-3.4-10.4-.9-2.6,2.4-2.6,9.2-2.6,9.2h0Z"/>
  <path class="st0" d="M74.8,172.1l5.5-12.9c.2-.4,0-.8-.4-.9-.4-.2-.8,0-.9.4l-5.5,12.9c-.2.4,0,.8.4.9.4.2.8,0,.9-.4h0Z"/>
  <polygon class="st0" points="80.3 159.2 79 158.7 73.5 171.5 74.8 172.1 80.3 159.2 80.3 159.2"/>
  <path class="st0" d="M219.9,332.2c-3.8,2.7-16.8,11.4-16.8,11.4-.3.2-.4.6-.2.9s.5.5.9.3l31.1-11.3,13.3,5.1,2.1,11.4c0,.3.4.6.7.6s.6-.3.7-.6l3.6-22.5,14.4-2.7c.3,0,.5-.3.6-.6,0-.3,0-.6-.3-.7l-15.5-9.8-6.1-9.9,17-5.4c.3,0,.5-.4.5-.7s-.3-.6-.6-.6l-30.3-4.3h-.1s-7.2.2-11.1,5.9c-1.7,2.4-2.8,5.8-2.5,10.6,0,.7,0,1.3-.4,1.7-.4.5-.9.7-1.7.9-.9.1-2.1,0-3.4-.1-16.1-2.7-57.5-28.9-57.5-28.9-.3-.2-.8-.1-1,.2-.2.3-.1.8.2,1,0,0,41.8,26.4,58,29.1,1.8.3,3.3.3,4.5,0,.9-.2,1.5-.7,2-1.3.5-.6.7-1.5.6-2.6-.3-4.4.7-7.5,2.2-9.6,3.3-4.8,9.3-5.2,9.9-5.3l27.2,3.9-14.9,4.7c-.2,0-.4.2-.5.4v.6l6.7,10.8s.1.2.2.2l14.1,8.9-13.1,2.5c-.3,0-.5.3-.6.6l-3,18.9-1.4-7.7c0-.2-.2-.4-.4-.5l-14-5.3h-.5l-25.8,9.4c4.6-3.1,10.9-7.3,12.6-8.6.4-.3.6-.5.6-.6.1-.3,0-.5,0-.6,0-.2-.2-.3-.4-.4-.4-.1-61.1-20.6-61.1-20.6-.3,0-.6,0-.8.2l-37.4,45.2c-10.6,5.2-21,3.5-29.7-.5-13.2-6-22.4-17.1-22.4-17.1h0c-19.5-22.5-21.4-50.3-16.6-75.6,7.2-38,29.3-70.3,29.3-70.3.2-.3,0-.8-.2-1-.3-.2-.8-.1-1,.2,0,0-22.3,32.5-29.5,70.8-4.8,25.6-2.9,53.9,17,76.8.3.3,9.6,11.5,22.9,17.5,9.1,4.1,19.9,5.9,31.1.4,0,0,.2-.1.2-.2,0,0,33.6-40.6,37.2-45,5.1,1.7,51.4,17.3,59.5,20.1h0v-.3Z"/>
  <path class="st0" d="M82.9,192.2l2.1-12.8c0-.4-.2-.8-.6-.8s-.8.2-.8.6l-2.1,12.8c0,.4.2.8.6.8s.8-.2.8-.6h0Z"/>
  <path class="st0" d="M180.7,241.3c-3.2-3.4-9-9.9-13.4-18.2-.6-1.2-1.7-1.9-3.2-2.1-2-.3-4.7.1-8,1.2-21,7.1-65.2,40.8-65.2,40.8-.3.2-.4.6-.2.9,0,.3.5.5.8.4,0,0,14.5-4,22-5,1.2-.2,2.3-.3,3-.3h.3c-3,3.6-19.8,29.7-25.8,45.9-1.6,4.4-2.4,8.1-2,10.5.3,1.9,1.3,3.1,3,3.4,1.5.3,3.4,0,5.5-.8,3-1.1,6.4-3.3,10-6,13.8-10.3,29.9-28.7,29.9-28.7h0c2.5-3.1,6.1-3.6,9.6-3.2,5.4.7,10.4,3.7,10.4,3.7.3.2.8,0,1-.2.2-.3,0-.8-.2-1,0,0-5.3-3.2-11-3.9-3.9-.5-8.1.2-10.9,3.7-.4.5-16.2,18.4-29.6,28.5-3.5,2.6-6.8,4.7-9.6,5.8-1.8.7-3.4,1-4.7.8-1.1-.2-1.7-1-1.9-2.2-.4-2.2.5-5.7,2-9.8,6-16.4,23.2-43,25.7-45.7.6-.7.6-1.2.3-1.6,0-.2-.3-.3-.6-.4-.3-.1-.9-.2-1.6-.2-4.3,0-15.6,2.9-21.4,4.4,8.6-6.4,34.7-25.4,53.2-34.6,5.7-2.8,10.6-4.7,14.1-5,2-.2,3.5.2,4.1,1.5,5.6,10.5,13.3,18.3,15.5,20.5.2.3.5.5.8.7s.7.1.9-.2.2-.7,0-1c0,0-.2-.2-.6-.5-.2-.2-.3-.5-.4-.8-.2-.7-.2-1.6-.1-2.7.5-5.4,4.2-14.6,9.4-24.3,7.9-14.7,19.4-30.7,29-37.2,3.9-2.6,7.4-3.7,10.2-2.3,3.2,1.6,5.5,5.5,5.5,5.5.1.2.4.4.7.3.3,0,.5-.3.6-.5l3.5-15.6,7.3,3c.3.1.6,0,.8-.1.2-.2.3-.5.2-.8l-3.4-8.9,16.3.3c.4,0,.7-.3.7-.6s-.2-.7-.5-.8l-29.5-6.9,11.7-18.2c.2-.2.1-.6,0-.8-.2-.2-.5-.3-.8-.3l-21.9,6.5-6.6-9.3c-.1-.2-.3-.3-.5-.3s-.4,0-.6.2l-12.5,13.5s-11.1,12-3,24.6l-23.9,20.6c-2.1.9-37,16-53.5,19-2.5.4-4.5.6-5.9.4-.7-.1-1.3-.3-1.6-.7-1.7-2.4-1.1-5.8.3-9.1,2.1-5.2,6-10.2,6.8-11.4,0,0,.4-.1.7-.2,1-.1,2.4,0,4.2,0,5,.3,12.1,1,16.7.8,2.2-.1,3.8-.5,4.5-1.1,3.1-2.7,22.3-13.1,22.3-13.1,0,0,.1,0,.1-.1,0,0,1.5-1.4,2.4-3.1.7-1.3,1-2.7.5-4s-2-2.6-5.3-3.1c-5.9-1-14,.9-20.4.5-3.9-.2-7.1-1.3-8.6-4.7.2-1.2,1.5-7.3,4-11.6,1.6-2.9,3.8-5,6.6-3.6h.6s7.6-3.6,13.7-4.7c1.5-.3,2.9-.4,4-.2.7,0,1.2.3,1.7.6,4.2,3.1,7.4,6.5,7.4,6.5.2.3.6.3.9,0,.3-.2.4-.6.2-.9l-7.1-15.2c-.1-.3-.4-.4-.7-.4l-6.3.6c-.2-1.7-.7-5.9-2.4-10.2-1.5-3.7-4-7.5-7.8-9.7-.2,0-.5,0-.7,0l-29.2,14.8c-2.3-1.1-16.9-7.8-18.6-8.6-1.9-.9-17.3-5.6-29.4,9.8-8.4,10.7-8.4,21.5-5.8,27.7,1.2,2.8,2.9,4.7,4.5,5.4,3.1,1.3,8.1,2.4,12.8,2.1,3.2-.2,6.3-1.1,8.6-3.1.3-.2.3-.7,0-1-.2-.3-.7-.3-1,0-2.1,1.8-4.9,2.6-7.8,2.8-4.5.3-9.2-.8-12.1-2-1.4-.6-2.8-2.3-3.7-4.6-2.4-5.9-2.4-16.1,5.6-26.3,11.4-14.5,25.9-10.2,27.7-9.4,1.9.9,18.9,8.7,18.9,8.7h.6l29.2-14.7c3.4,2.1,5.5,5.5,6.9,8.8,2.2,5.3,2.4,10.4,2.4,10.4,0,.2,0,.4.2.5.1.1.3.2.5.2l6.5-.6,5.3,11.4c-1.3-1.2-3-2.6-4.8-4-1.4-1-3.9-1.1-6.8-.6-5.5,1-12.2,4-13.7,4.6-3.4-1.5-6.2.8-8.2,4.3-2.8,4.9-4.2,12.2-4.2,12.2v.4c1.7,4,5.4,5.4,9.9,5.7,6.3.4,14.4-1.5,20.2-.5,2.6.4,3.8,1.2,4.2,2.3.4.9,0,1.9-.5,2.8-.7,1.3-1.8,2.4-2,2.7-1.4.8-19.4,10.6-22.4,13.2-.2.2-.5.3-.9.4-.7.2-1.7.3-2.8.4-4.6.2-11.6-.5-16.6-.8-2.2-.1-4-.1-4.9,0-.7.1-1.1.4-1.2.7-.6,1.1-4.7,6.3-6.9,11.7-1.6,3.8-2.1,7.7,0,10.5.5.6,1.3,1.1,2.5,1.3,1.5.2,3.7,0,6.4-.4,17.1-3.1,53.9-19.1,53.9-19.1,0,0,.1,0,.2-.1l24.5-21.1c.3-.2.3-.6.1-.9-8.1-11.9,2.6-23.4,2.6-23.4l11.9-12.9,6.4,9c.2.2.5.4.8.3l20.6-6.1-11.2,17.4c-.1.2-.1.4,0,.6,0,.2.3.4.5.4l23.9,5.6-10.7-.2c-.2,0-.5.1-.6.3s-.2.4,0,.7l3.2,8.3-6.6-2.7h-.6c-.2,0-.3.3-.4.5l-3.3,14.9c-1-1.4-2.9-3.5-5.1-4.7-3.2-1.6-7.2-.6-11.7,2.4-9.7,6.6-21.4,22.8-29.5,37.7-5.4,10-9.1,19.4-9.6,24.9v1.7h0l-.3-.2Z"/>
  <path class="st0" d="M91,171.7s-6,7-11.6,10.3c-1.1.7-2.3,1.2-3.3,1.4-.9.2-1.8.2-2.6-.2-4.2-2.1-11.8-2.9-16-3.2l7.5-3.3,9.5-4.1c.4-.2.5-.6.4-.9-.2-.4-.6-.5-.9-.4l-9.5,4.1h0l-10.2,4.6c-.3.1-.5.5-.4.8,0,.3.3.6.7.6,0,0,12.6.2,18.4,3.1,1.9,1,4.6.3,7.2-1.2,5.8-3.3,12-10.6,12-10.6.3-.3.2-.7,0-1-.3-.3-.7-.2-1,0h-.2Z"/>
  <path class="st0" d="M91,171.7s-6,7-11.6,10.3c-1.1.7-2.3,1.2-3.3,1.4-.9.2-1.8.2-2.6-.2-4.2-2.1-11.8-2.9-16-3.2l7.5-3.3,9.5-4.1c.4-.2.5-.6.4-.9-.2-.4-.6-.5-.9-.4l-9.5,4.1h0l-10.2,4.6c-.3.1-.5.5-.4.8,0,.3.3.6.7.6,0,0,12.6.2,18.4,3.1,1.9,1,4.6.3,7.2-1.2,5.8-3.3,12-10.6,12-10.6.3-.3.2-.7,0-1-.3-.3-.7-.2-1,0h-.2Z"/>
  <path class="st0" d="M100.7,144.2c0,.3,0,.5.4.6,0,0,2.2,1.2,4.8,1.6,1.8.3,3.8.1,5.5-1.1,2.9-2,4.3-5.3,4.4-7.4,0-1.1-.3-2-.8-2.5,0,0,0,0-.2-.1,0,0-4-1.7-7.3-1.9-1.6,0-3,.2-3.9,1.1-1.1,1.1-1.8,2.9-2.2,4.6-.6,2.5-.6,5-.6,5h-.1ZM102.2,143.8c0-.8,0-2.5.6-4.3.3-1.5.9-3,1.8-3.9.4-.4,1-.6,1.7-.6s1.6,0,2.5.1c2.4.4,4.8,1.3,5.4,1.6,0,.1.2.4.2.6v1.5c-.4,1.8-1.6,4-3.7,5.5-1.4,1-3,1-4.5.8-1.7-.2-3.2-.9-3.9-1.3h0Z"/>
  <path class="st0" d="M154.8,110.5l15,6.6h.6c.2,0,.3-.3.4-.5,0,0,1.9-9.9,5.5-16.7,1.4-2.8,3.1-5.1,5.1-5.9,6.7-2.6,11-.3,11-.3.3,0,.6,0,.8,0,.2-.2.3-.5.2-.8l-3.9-11,22.1-14c.3-.2.4-.5.3-.8-.1-.3-.4-.5-.8-.5l-17.8,2.2-4.8-17.3c0-.2-.2-.4-.4-.5h-.6l-15.8,10-12.1-8.5c-.2,0-.4-.2-.6,0-.2,0-.4.2-.5.4l-10.8,23.4h0c0,0-7.3,34.3-7.6,35.2-.1.4.1.8.5.9s.8,0,.9-.5c.2-.8,7.2-33.4,7.6-35.1l10.4-22.6,11.8,8.2c.2.2.5.2.8,0l15.4-9.7,4.7,16.9c0,.3.4.6.8.5l15.3-1.9-19.9,12.6c-.3.2-.4.5-.3.8l3.6,10.1c-2-.6-5.7-1.1-10.7.8-2.2.9-4.2,3.4-5.9,6.5-3,5.8-4.9,13.7-5.4,16.2l-14.2-6.2c-.4-.2-.8,0-.9.4-.2.4,0,.8.4.9h0l-.2.3Z"/>
  <path class="st0" d="M155.3,109.1l-2.7-.6c-.4,0-.8,0-.9.5,0,.4.1.8.5.9l2.7.6c.4,0,.8,0,.9-.5,0-.4-.1-.8-.5-.9h0Z"/>
  <path class="st0" d="M140.1,112.3l1.6,1.9c.2.3.7.3,1,0,.3-.2.3-.7,0-1l-1.6-1.9c-.2-.3-.7-.3-1,0-.3.2-.3.7,0,1h0Z"/>
  <path class="st0" d="M183.9,386.6c-.3,0-.8-.1-1.4-.2-3.8-.6-12.4-2.2-14.2-2.6-17.6-27.6-41.4-32.6-41.4-32.6-.4,0-.8.2-.8.5s.2.8.5.8c0,0,23.5,4.9,40.7,32.2.1.2.3.3.5.3,0,0,13,2.4,15.8,2.8h.9s.3-.2.6-.6c1.9-2.2,10-11.9,11.4-13.5l12.9-1.1c.6,1.2,2.1,4.5,2.4,7.7.2,2.3-.3,4.6-2.8,5.4-7.4,2.5-10.7,8.7-10.7,8.7h0l-5.9,12.7-8-3.7c-.2-.1-.5,0-.8.1l-12.8,10.8-14.7-8.9c-1.1-.9-26.4-21.8-26.4-21.8-.1,0-.3-.2-.4-.2,0,0-10.1-.5-17.3.8-1.9.4-3.6.8-4.9,1.5-.9.5-1.7,1-2.2,1.7-.8,1.2-2.2,1.1-3.8.4-4.4-1.8-10.3-8.1-12.9-11.7-3.8-5.3-12.5-31.8-12.5-31.8,0-.4-.5-.6-.9-.5s-.6.5-.5.9c0,0,8.8,26.8,12.7,32.2,2.7,3.8,8.9,10.3,13.5,12.2,2.3.9,4.3.8,5.5-.9.4-.5.9-.9,1.6-1.3,1.2-.6,2.8-1,4.5-1.4,6.4-1.2,15.2-.9,16.7-.8l26.3,21.7h0l15.2,9.2c.3.2.6.1.8,0l12.9-10.9,8.2,3.8c.4.2.8,0,.9-.3l6.2-13.3c.2-.3,3.3-5.8,9.9-8,3.2-1.1,4-3.9,3.8-6.9-.3-4.1-2.7-8.7-2.7-8.7-.1-.3-.4-.4-.7-.4l-13.7,1.1c-.2,0-.4.1-.5.3,0,0-7.5,9-10.6,12.6-.5.5-.9,1-1.1,1.2h0l.2.5Z"/>
  <path class="st0" d="M89.6,379.8s-3.9,22.1-2.8,40.1c.5,7.9,2,15,5.1,19.2,6.1,8.4,16.8,26.1,31.9,39.5,10.1,9,22.2,16,36.1,17,.4,0,.7-.3.8-.7,0-.4-.3-.7-.7-.8-13.6-.9-25.4-7.8-35.2-16.6-14.9-13.3-25.6-31-31.7-39.3-3-4.1-4.3-10.9-4.8-18.5-1.1-17.9,2.7-39.8,2.7-39.8,0-.4-.2-.8-.6-.8s-.8.2-.8.6h0Z"/>
  <path class="st0" d="M159.7,495.6s16.4,2.9,33.8,2.3c11.7-.4,23.8-2.4,31.9-7.9,15.4-10.5,23-9.8,25.4-9.1-3,2.6-13,11.3-15.4,13.3-2.8,2.2-12.3,11.2-13.4,12.2-2.1.8-28.7,10.4-57.9,10.2-20.2,0-41.6-4.9-57-20.6h0s-19.8-17.3-32.2-34.5c-5.2-7.3-9.2-14.5-9.6-20.3h0s-4.7-29.2-6.1-50.2c-.6-8.9-.6-16.3.6-19.3,1.4-3.4,1.3-5.4.6-6.6s-2-1.7-3.4-1.7-1.7,0-2.4.2l2.2-7c0-.4,0-.8-.5-.9-.4-.1-.8,0-.9.5l-2.5,8.2c0,.3,0,.5.2.7s.5.2.7.2c0,0,1.6-.6,3.1-.5.9,0,1.8.2,2.2,1,.6,1,.4,2.6-.7,5.4-1.3,3.1-1.3,10.8-.7,19.9,1.4,20.7,6,49.3,6.1,50.3.4,6,4.4,13.5,9.8,21,12.2,17,31.7,34.1,32.4,34.7,15.6,16,37.4,20.9,57.9,21,30.7.2,58.5-10.3,58.5-10.3,0,0,.2,0,.2-.1,0,0,10.5-9.9,13.4-12.3,2.9-2.3,16.3-14.1,16.3-14.1.2-.1.3-.4.2-.6,0-.2-.1-.4-.3-.5,0,0-7.5-5.2-27.9,8.7-7.9,5.4-19.7,7.3-31.1,7.6-17.3.6-33.5-2.3-33.5-2.3-.4,0-.8.2-.8.6s.2.8.6.8h.2Z"/>
  <path class="st0" d="M32.7,247.8c0,.3-.3.8-.5,1.2-2.3,5.6-9.6,22.4-7.3,36.4,2.8,17.1-9.6,49-9.6,49v.6c.1.2.3.3.6.3,10.1.2,17.6-2.3,23-5.8,12.7-8.4,14.6-22.8,14.6-22.8,0-.4-.2-.7-.6-.8-.4,0-.7.2-.8.6,0,0-1.8,13.8-13.9,21.8-5.1,3.3-11.9,5.7-21.2,5.6,2-5.5,11.9-33.2,9.4-48.8-2.5-15.4,7-34.4,7.8-37.2v-.4h0c3.2-3.2,24.7-23.8,24.7-23.8.3-.3.3-.7,0-1s-.7-.3-1,0c0,0-21.5,20.5-24.7,23.8-.4.4-.5.6-.5.6v.6h0Z"/>
  <path class="st0" d="M58.9,223.9l9.2-5.8c.3-.2.4-.6.2-1-.2-.3-.6-.4-1-.2l-9.2,5.8c-.3.2-.4.6-.2,1,.2.3.6.4,1,.2h0Z"/>
  <path class="st0" d="M1.9,348.9c0-.2-.1-.4-.2-.6-.1-.5-.2-1.2-.2-1.9-.4-6,.8-18.1.8-18.6,5.3-40.1,10.9-73.8,10.9-73.8v-.4c-3.2-6.6.2-13.2,5.4-18.7,8-8.5,20.3-14.6,20.3-14.6.4-.2.5-.6.3-.9-.2-.4-.6-.5-.9-.3,0,0-12.5,6.2-20.7,14.9-5.6,5.9-9.1,13-5.7,20.1-.5,3-5.8,35.3-10.8,73.6h0s-1.6,16.5-.5,21.1c.1.5.3.9.5,1.2.2.3.5.5.8.5s.9,0,1.4-.6c5.6-6.6,13.7-17,17.2-25.5.2-.4,0-.8-.4-.9-.4-.2-.8,0-.9.4-3.5,8.4-11.5,18.6-17,25.1h-.3Z"/>
  <path class="st0" d="M38.8,220.4s34.5-15.7,35.7-16.3l1-.3c.4-.1.6-.5.4-.9,0-.4-.5-.6-.9-.4l-1,.3h0l-35.7,16.3c-.4.2-.5.6-.4.9.2.4.6.5.9.4h0Z"/>
  <path class="st0" d="M81.7,119.2s-1.5-17.6.8-28.9c.6-2.8,1.4-5.3,2.5-6.9.7-1,1.5-1.6,2.4-1.9,1.1,0,11.4,0,19.8-1.7,3.9-.8,7.4-2,9.5-3.6.6-.5,1.1-.8,1.5-.9.3,0,.6,0,.8,0,.5.2.8.8,1,1.6.7,2.6.2,6.7,0,7.8-1.7,1.2-11.8,8.8-15.4,10.6-.7.3-1.1,1-1.3,1.9-.2,1.1,0,2.6.3,4.3,1.4,6.3,6.1,15.7,6.1,15.7.2.3.6.5.9.3s.5-.6.3-.9c0,0-4.6-9.2-6-15.4-.3-1.5-.5-2.8-.3-3.8,0-.4.2-.8.5-.9,4-2.1,15.8-10.9,15.8-10.9,0,0,.2-.3.3-.5,0,0,.8-5.5,0-8.7-.3-1.3-1-2.2-1.9-2.6-.9-.3-2.1,0-3.7,1.2-1.9,1.5-5.2,2.6-8.9,3.3-8.8,1.8-19.6,1.7-19.6,1.7h-.2c-1.3.3-2.4,1.2-3.3,2.5-1.2,1.8-2.2,4.4-2.8,7.5-2.4,11.5-.8,29.3-.8,29.3,0,.4.4.7.8.6.4,0,.7-.4.6-.8h.3Z"/>
  <path class="st0" d="M110,117.3l2,2.5c.2.3.7.3,1,0,.3-.2.3-.7,0-1l-2-2.5c-.2-.3-.7-.3-1,0-.3.2-.3.7,0,1h0Z"/>
  <path class="st0" d="M56.7,356.6l7.7-25c0-.4,0-.8-.5-.9-.4-.1-.8,0-.9.5l-7.7,25c0,.4,0,.8.5.9.4.1.8,0,.9-.5h0Z"/>
</svg>