<?xml version="1.0" encoding="UTF-8"?>
<svg id="Layer_1" xmlns="http://www.w3.org/2000/svg" xmlns:xlink="http://www.w3.org/1999/xlink" version="1.1" viewBox="0 0 800 600">
  <!-- Generator: Adobe Illustrator 29.0.1, SVG Export Plug-In . SVG Version: 2.1.0 Build 192)  -->
  <defs>
    <style>
      .st0 {
        fill: none;
      }

      .st1 {
        fill: #eff1f3;
      }

      .st2 {
        fill: #a93030;
        fill-rule: evenodd;
      }

      .st3 {
        clip-path: url(#clippath);
      }
    </style>
    <clipPath id="clippath">
      <rect class="st0" width="800" height="600"/>
    </clipPath>
  </defs>
  <g class="st3">
    <g>
      <path class="st1" d="M800,0H0v600h800V0Z"/>
      <path class="st2" d="M225,159.9c0-9.6,7.8-17.3,17.4-17.4h315.3c9.6,0,17.4,7.8,17.4,17.4v280.2c0,9.6-7.8,17.3-17.4,17.4H242.4c-9.6,0-17.4-7.8-17.4-17.4V159.9ZM540,177.5h-280v245l162.6-162.6c6.8-6.8,17.9-6.8,24.7,0l92.6,92.8v-175.2ZM295,247.5c0,19.3,15.7,35,35,35s35-15.7,35-35-15.7-35-35-35-35,15.7-35,35"/>
    </g>
  </g>
</svg>